<svg width="696" height="477" viewBox="0 0 696 477" fill="none" xmlns="http://www.w3.org/2000/svg">
<path d="M1.17301 472.929C2.06673 473.421 3.36267 473.689 4.43513 473.823C8.36748 474.225 12.2998 474.493 16.2768 474.761C24.365 475.253 32.4977 475.566 40.6305 475.745C56.8962 476.102 73.2066 476.057 89.4722 476.638C92.1534 476.728 94.7898 477.04 97.4263 476.996C131.477 476.013 151.183 476.013 176.788 475.208C209.23 474.181 243.638 467.969 171.426 463.456C156.009 462.473 139.699 462.428 124.238 461.579C110.564 460.819 96.8453 460.507 83.1268 460.507C71.1957 460.507 59.2645 460.685 47.3334 460.82C34.8661 460.998 20.4326 458.541 8.9483 464.975C7.92053 465.556 6.93747 466.182 5.9097 466.673C4.47975 467.344 2.96042 467.746 1.70922 468.818C-0.748498 470.829 -0.212247 472.17 1.17301 472.929Z" fill="url(#paint0_linear_502_38)"/>
<path opacity="0.56" d="M1.17301 472.929C2.06673 473.421 3.36267 473.689 4.43513 473.823C8.36748 474.225 12.2998 474.493 16.2768 474.761C24.365 475.253 32.4977 475.566 40.6305 475.745C56.8962 476.102 73.2066 476.057 89.4722 476.638C92.1534 476.728 94.7898 477.04 97.4263 476.996C131.477 476.013 151.183 476.013 176.788 475.208C209.23 474.181 243.638 467.969 171.426 463.456C156.009 462.473 139.699 462.428 124.238 461.579C110.564 460.819 96.8453 460.507 83.1268 460.507C71.1957 460.507 59.2645 460.685 47.3334 460.82C34.8661 460.998 20.4326 458.541 8.9483 464.975C7.92053 465.556 6.93747 466.182 5.9097 466.673C4.47975 467.344 2.96042 467.746 1.70922 468.818C-0.748498 470.829 -0.212247 472.17 1.17301 472.929Z" fill="url(#paint1_linear_502_38)"/>
<path d="M39.9159 350.892C41.5246 319.031 38.1285 286.544 38.4413 254.46C37.3689 243.333 39.1116 232.027 43.4908 221.571C43.7589 220.9 44.0717 220.275 44.608 219.783C46.306 218.219 49.1659 219.068 51.4002 219.873C72.8941 227.737 98.231 225.861 117.803 214.779C121.691 220.007 122.763 226.397 123.747 232.608C125.311 242.618 126.964 252.627 127.411 262.682V262.726C127.5 264.871 127.545 267.061 127.5 269.206C127.232 281.763 124.506 294.096 122.361 306.474C120.976 314.517 119.77 322.65 119.636 330.828C119.546 337.53 120.619 343.608 118.921 350.177C114.765 366.308 114.765 383.87 113.022 400.314C111.145 417.965 109.268 435.571 107.749 453.267C107.704 453.982 107.615 454.652 107.57 455.367C106.587 455.59 91.26 458.718 91.26 455.233C90.0535 420.959 88.8022 386.685 87.5957 352.366C87.0595 337.933 88.2661 289.18 84.155 275.462C82.4569 275.596 80.7588 275.775 79.0607 275.909C69.7214 321.265 58.684 400.761 49.3447 446.117C48.5403 450.094 47.5125 454.428 44.5632 456.976C41.614 459.567 36.0729 458.808 35.1792 454.831C37.8157 420.244 38.1285 385.612 39.9159 350.892Z" fill="#516277"/>
<path d="M60.2038 35.6781C60.2038 22.5852 71.6434 11.95 85.7194 11.95C99.7954 11.95 111.235 22.5852 111.235 35.6781C111.235 37.8677 110.878 39.9679 110.297 41.9788C110.297 42.515 110.252 43.0065 110.252 43.5874C110.341 48.3241 110.118 53.0609 109.179 57.7529C107.392 66.8241 102.7 75.2697 93.8077 80.4532C90.8584 82.1513 87.4623 83.4919 83.8874 83.4473C79.106 83.4026 74.7715 80.9448 71.4648 77.9508C60.5614 67.8965 59.5783 52.8374 60.3826 38.6273C60.2933 37.5995 60.2038 36.6612 60.2038 35.6781Z" fill="#D1AC9D"/>
<path d="M97.2936 80.0515C96.0871 81.6602 94.8805 83.2689 93.0931 84.3414C90.9929 85.6373 88.3116 85.9947 85.7198 86.0394C82.5918 86.0841 79.3298 85.682 76.7827 84.0733C74.9952 82.9115 70.5714 79.3366 69.4543 77.6385C65.656 71.8741 63.243 67.897 61.2321 61.5069C60.6065 59.5408 60.0703 57.5299 60.1597 55.5191C60.9193 55.2063 61.813 55.6978 62.1705 56.368C62.5279 57.0383 62.4833 57.798 62.528 58.5577C62.6621 62.49 64.6729 66.199 66.6838 69.6845C68.4712 72.7678 73.0292 75.4936 75.7997 77.9066C78.5702 80.3644 82.4131 82.0624 86.3008 81.839C86.7923 81.7943 87.3286 81.7496 87.7755 81.5262C88.7139 81.0346 89.116 80.0068 89.3841 79.0684C89.6522 78.13 90.0097 77.1023 90.9034 76.566C91.7971 76.0298 93.4505 76.5214 93.3165 77.5045C93.2271 78.1301 92.5122 78.5769 92.5122 79.2025C92.5122 79.9175 93.5399 80.3644 94.2996 80.1409C95.0592 79.9622 95.6402 79.3366 96.1317 78.8003C97.3382 77.4598 98.5895 76.0745 99.796 74.7339C100.332 74.153 100.913 73.7062 101.628 74.019C100.734 76.0745 98.7682 78.13 97.2936 80.0515Z" fill="#333333"/>
<path d="M90.7692 455.724C97.338 455.233 103.996 455.501 110.476 456.484C115.48 459.791 120.977 462.561 126.786 464.617C128.484 465.243 130.227 465.824 131.478 466.985C132.729 468.147 133.221 470.158 132.059 471.364C131.031 472.437 129.244 472.571 127.68 472.571C115.525 472.705 103.371 471.767 91.3949 469.845C90.6799 469.711 89.9202 469.577 89.384 469.13C88.9818 468.773 88.7584 468.236 88.6244 467.745C87.4179 463.679 88.2221 459.21 90.7692 455.724Z" fill="#3D322B"/>
<path d="M34.5988 452.061C40.4973 452.686 46.3064 453.893 51.8474 455.769C55.6011 459.478 59.9356 462.74 64.6277 465.466C66.0129 466.271 67.4428 467.03 68.2918 468.281C69.1408 469.533 69.2303 471.32 67.9344 472.258C66.8172 473.063 65.2085 472.884 63.8232 472.661C53.0539 470.873 42.5082 468.192 32.3645 464.617C31.7389 464.394 31.1132 464.17 30.7557 463.679C30.4429 463.277 30.3983 462.83 30.3536 462.338C30.0855 458.585 31.6495 454.742 34.5988 452.061Z" fill="#3D322B"/>
<path d="M108.464 257.454C109.224 255.756 110.251 254.192 111.413 252.673C113.022 250.528 114.854 248.562 116.239 246.327C117.178 244.808 117.937 243.155 119.457 242.038C120.082 241.546 120.931 241.189 121.78 241.323C122.54 241.457 123.121 241.993 123.478 242.619C123.791 243.244 123.925 243.914 123.97 244.585L124.015 246.327C122.629 252.003 121.289 257.678 119.904 263.308C119.635 264.425 119.278 265.676 118.161 266.302C117.178 266.838 115.926 266.704 114.809 266.525C112.486 266.168 109.983 265.721 108.553 264.023C106.989 262.191 107.481 259.599 108.464 257.454Z" fill="#D1AC9D"/>
<path d="M119.904 238.506C119.279 241.679 119.055 245.88 121.513 246.907C124.06 247.935 126.652 244.494 128.216 241.545C131.657 235.066 135.098 228.586 138.583 222.151C145.286 209.55 152.123 196.636 155.206 182.56C156.457 176.84 156.86 170.182 153.642 166.339C151.631 163.926 148.593 163.121 145.643 162.585C131.031 159.949 131.925 176.617 129.423 189.576C126.25 205.886 123.077 222.196 119.904 238.506Z" fill="#97A8B2"/>
<path d="M99.796 241.635C101.181 246.058 102.924 250.393 105.069 254.37C109.046 261.609 118.162 264.424 126.742 263.262C126.831 263.888 126.608 264.916 126.608 265.318C126.429 267.463 126.027 269.608 125.401 271.708C124.954 273.138 124.373 274.613 123.033 275.462C121.513 276.445 119.458 276.4 117.581 276.221C114.319 275.953 111.012 275.462 107.973 274.434C103.818 273.004 100.153 270.591 96.8914 267.91C94.4336 265.899 92.1548 263.665 90.5908 261.028C89.0715 258.436 88.3564 255.532 87.8649 252.627C87.2393 249.008 87.0159 245.299 87.5968 241.679C91.3951 241.724 95.5956 241.724 99.796 241.635Z" fill="#516277"/>
<path d="M124.328 263.039C122.63 263.307 120.887 263.307 119.189 263.084C115.838 262.682 112.576 261.386 110.073 259.33C107.928 257.587 106.364 255.353 104.979 253.029C102.834 249.41 101.225 245.567 100.108 241.59C100.466 241.59 100.868 241.59 101.225 241.545C101.806 243.511 102.432 245.433 103.102 247.354C104.8 252.002 107.884 257.587 112.799 260.358C116.91 262.726 121.915 262.279 126.741 262.101C127.411 262.056 127.635 263.084 126.92 263.173C126.875 263.173 126.83 263.173 126.786 263.173C126.741 262.994 126.696 262.816 126.607 262.726C126.115 262.458 124.864 262.95 124.328 263.039Z" fill="#4B5B6B"/>
<path d="M105.068 254.37C102.878 250.393 101.135 246.103 99.7949 241.635C99.8843 241.635 99.9736 241.635 100.108 241.635C101.225 245.612 102.834 249.455 104.978 253.074C106.319 255.353 107.928 257.587 110.073 259.375C112.575 261.43 115.837 262.726 119.189 263.128C120.887 263.352 122.629 263.307 124.327 263.084C124.864 262.994 126.115 262.503 126.562 262.86C126.651 262.95 126.74 263.128 126.74 263.307C118.205 264.38 109.045 261.609 105.068 254.37Z" fill="#516277"/>
<path d="M33.3475 220.544C33.4368 201.507 33.4815 182.516 33.5709 163.48C33.6155 147.438 37.6819 130.457 40.2737 114.638C41.7037 105.924 43.4017 102.886 47.7809 95.1551C48.4065 94.038 48.4958 93.323 54.305 91.6249C55.5562 91.2674 58.5502 89.7035 60.0695 89.9716C67.6214 91.1334 75.3074 88.5416 82.8593 89.7035C90.8581 90.91 104.264 87.2457 110.475 92.2059C118.876 98.8641 119.457 114.772 120.798 125.139C122.585 139.126 126.875 153.336 127.634 167.457C128.305 179.835 128.662 192.213 128.93 204.591C129.064 211.025 131.656 233.502 125.266 237.792C121.512 240.295 111.503 241.367 101.181 241.635C100.823 241.635 100.421 241.68 100.063 241.68C99.974 241.68 99.8846 241.68 99.7505 241.68C95.5501 241.769 91.3496 241.769 87.5513 241.68C81.9208 241.591 77.1842 241.322 74.5924 241.099C62.5719 240.116 50.6855 237.882 38.8885 235.424C36.7882 234.977 34.4646 234.396 33.3475 232.653C32.5431 231.402 33.3475 222.018 33.3475 220.544Z" fill="#97A8B2"/>
<path d="M119.59 99.7568C116.507 96.2713 113.021 92.9199 108.955 91.7581C104.889 90.5963 100.197 92.2496 98.5879 96.6288C97.158 100.651 98.6327 105.477 100.286 109.632C104.531 120.268 109.894 130.277 115.256 140.242C120.931 150.743 126.561 161.245 132.236 171.746C133.934 174.918 135.811 178.27 138.582 180.013C143.453 183.096 154.624 179.208 155.473 172.505C156.233 166.473 148.189 151.637 145.91 145.873C139.252 129.115 131.075 112.76 119.59 99.7568Z" fill="#97A8B2"/>
<path d="M85.9435 92.7414C85.5413 92.2498 85.1391 91.6243 85.3626 91.0434C85.5413 90.5965 86.0776 90.3731 86.5245 90.1943C88.6694 89.3006 90.859 88.4962 93.0933 87.7812C93.8082 87.5578 94.6573 87.3344 95.3276 87.6919C95.6851 87.8707 95.9084 88.1835 96.1319 88.4516C97.5171 90.2837 98.9024 92.0711 100.288 93.9033C100.511 94.1714 100.735 94.4841 100.735 94.8416C100.735 95.2438 100.377 95.6013 100.064 95.8694C98.5896 97.2994 97.1597 98.8187 95.8638 100.383C94.9254 101.5 93.8082 104.181 91.9761 103.019C90.5462 102.125 90.0547 99.3996 89.3397 98.0143C88.4013 96.2269 87.2394 94.4394 85.9435 92.7414Z" fill="#ABBCC4"/>
<path d="M78.436 99.6675C78.1679 100.829 78.0338 101.991 77.5869 103.108C77.5423 103.242 77.4529 103.421 77.3188 103.51C76.872 103.823 76.291 103.332 76.0229 102.93C73.5205 99.4441 70.5712 96.1821 67.2198 93.2775C66.5495 92.6966 65.8792 92.1156 65.477 91.4007C65.0748 90.641 65.0749 89.7026 65.7005 89.077C66.1027 88.6748 66.7282 88.4961 67.3091 88.3173C68.5603 87.9599 69.8562 87.6023 71.1074 87.2449C71.8671 87.0214 72.6714 86.798 73.4758 86.8874C74.1908 86.9767 74.8611 87.3343 75.4867 87.6917C77.006 88.5855 81.2958 90.4176 81.4299 92.205C81.5192 93.2328 80.1787 94.7521 79.7765 95.7352C79.1509 96.9864 78.7488 98.3269 78.436 99.6675Z" fill="#ABBCC4"/>
<path d="M88.847 98.9522C88.8917 98.7735 88.9364 98.6395 88.847 98.4608C88.8023 98.3267 88.6683 98.2373 88.4896 98.1479C86.6574 96.9861 84.289 96.4945 82.0994 96.8073C81.8313 96.852 81.5632 96.8967 81.3398 97.0308C81.0717 97.2095 80.9376 97.4329 80.8482 97.701C80.3566 98.8182 80.446 100.114 80.8482 101.276C81.2504 102.438 81.9653 103.466 82.6803 104.493C82.7697 104.627 82.8591 104.761 83.0379 104.851C83.1719 104.94 83.3506 104.94 83.5294 104.94C86.568 104.761 88.2214 101.142 88.847 98.9522Z" fill="#333333"/>
<path d="M90.2332 136.713C93.2271 153.649 96.2212 170.674 97.4277 187.789C97.517 188.951 97.5617 190.112 97.1596 191.185C96.8021 192.123 96.1318 192.883 95.4615 193.643C92.9144 196.547 90.3672 199.452 87.8201 202.356C87.3733 196.368 79.0171 193.196 77.0062 187.431C76.3359 185.465 76.4253 183.365 76.5593 181.309C77.4531 166.116 78.3468 150.923 79.2405 135.73C79.7321 127.463 78.3468 113.163 83.3963 106.103C86.8371 107.041 86.7924 116.962 87.3286 119.911C88.267 125.541 89.2501 131.127 90.2332 136.713Z" fill="#333333"/>
<path d="M14.9368 168.305C9.30638 185.375 5.06125 202.803 2.24604 220.409C1.97792 222.062 1.75448 223.894 2.6482 225.369C3.81003 227.201 6.31251 227.916 8.59149 228.497C22.1313 231.848 35.6711 235.2 49.2556 238.551C54.1264 239.758 59.0864 240.964 64.1359 241.188C65.0296 241.232 66.0128 241.232 66.8171 240.785C67.7108 240.294 68.1577 239.4 68.5152 238.551C72.8497 229.123 76.6927 219.515 79.9547 209.774C81.7869 204.322 83.4403 198.825 85.0043 193.284C86.747 186.984 85.317 183.856 78.5248 182.56C71.4644 181.175 64.5381 178.851 57.5671 177.108C53.9922 176.215 15.339 167.099 14.9368 168.305Z" fill="#E2E2E2"/>
<path d="M38.3532 199.139C38.2635 199.049 38.1739 198.959 38.0842 198.87C38.2635 198.914 38.3532 199.004 38.3532 199.139Z" fill="white"/>
<path d="M36.2518 206.735C39.4691 207.227 42.5525 208.031 45.6358 209.103C46.2167 209.327 47.021 208.746 46.9316 208.12C46.4848 203.652 46.0379 199.228 45.5911 194.759C45.5464 194.357 45.323 194.089 45.0102 193.91C44.5633 193.151 43.312 193.017 43.1333 194.089C42.8205 196.011 40.5416 198.066 39.4244 199.63C38.1285 201.462 36.8774 203.384 35.5815 205.26C35.3134 205.707 35.6262 206.646 36.2518 206.735ZM43.8037 197.396C44.1165 200.479 44.4292 203.562 44.742 206.646C42.5971 205.975 40.4522 205.439 38.2626 205.037C39.4244 203.294 40.631 201.552 41.8375 199.853C42.4184 199.049 43.1781 198.245 43.8037 197.396Z" fill="white"/>
<path d="M23.5167 231.625C23.7402 229.748 24.5445 228.006 25.1254 226.218C25.3488 225.503 25.5722 224.744 26.1085 224.118C26.8681 223.269 28.2088 222.822 29.4153 223.09C30.6218 223.358 31.6048 224.252 31.8282 225.325L32.0963 227.112C31.5601 228.497 31.7836 230.017 32.4539 231.357C33.1242 232.698 34.2413 233.815 35.4925 234.709C36.2075 235.245 37.0566 235.915 36.7884 236.675C36.6097 237.256 35.8947 237.569 35.2691 237.747C33.8392 238.149 32.3645 238.418 30.8899 238.418C28.8343 238.462 26.6 238.06 25.1701 236.764C23.6955 235.513 23.2933 233.502 23.5167 231.625Z" fill="#D1AC9D"/>
<path d="M39.7377 191.766C46.5746 164.418 54.1264 137.204 62.2593 110.169C63.1977 106.997 64.1808 103.779 63.868 100.517C63.5552 97.2552 61.7231 93.9485 58.3716 92.5185C54.4393 90.8652 49.5239 92.4292 46.5299 95.2444C43.536 98.0596 42.0167 101.813 40.6761 105.522C28.3428 139.17 23.338 174.919 26.0191 210.221C26.2873 213.841 26.6447 217.594 25.4382 221.08C24.8126 222.912 23.8296 225.146 25.3489 226.531C27.1363 228.185 31.292 228.095 32.6773 226.442C34.4647 224.252 34.0179 217.46 34.5541 214.69C35.9841 207.048 37.8609 199.407 39.7377 191.766Z" fill="#97A8B2"/>
<path d="M105.694 41.5315C101.583 38.8056 95.0589 38.7163 91.3947 42.2465C91.3053 42.2912 91.2607 42.3805 91.2607 42.4698C88.9817 42.4252 86.6132 42.4699 84.3343 42.2017C82.8596 38.5822 78.7932 36.1245 74.995 36.8395C69.588 36.5713 64.047 39.0738 61.6787 44.3467C58.7741 50.8262 67.7559 55.4735 73.1182 55.6969C79.3296 55.965 85.809 50.6474 84.8259 43.9892C84.8259 43.8998 84.7812 43.8551 84.7812 43.7658C87.0601 43.6764 89.3838 43.8551 91.6628 43.9445C91.5734 51.2283 103.505 58.7802 108.375 51.8986C110.922 48.3684 109.001 43.7211 105.694 41.5315ZM71.5542 53.7307C66.1025 52.7029 60.2486 47.9662 64.9406 42.5592C66.8174 40.4143 69.4092 39.0291 72.1797 38.5375C72.2244 39.0738 72.716 39.5653 73.3863 39.2525C78.2124 37.1076 84.2003 41.2634 82.9938 46.7597C81.8319 51.9433 76.4696 54.6691 71.5542 53.7307ZM107.079 50.558C103.505 56.4566 90.501 48.8152 93.4502 42.9614V42.9167C96.1314 41.7102 98.7678 40.9953 101.806 41.7549C105.515 42.738 109.493 46.5363 107.079 50.558Z" fill="#414141"/>
<path d="M292.255 51.2654C293.238 54.4827 294.221 57.7001 294.846 61.0516C295.115 62.4368 297.036 61.9899 296.947 60.6493C296.679 57.2979 296.5 53.9018 295.964 50.595C295.561 48.182 291.54 49.0311 292.255 51.2654Z" fill="#666666"/>
<path d="M276.973 61.4091C278.313 62.705 279.877 63.6434 281.441 64.6265C282.827 65.4755 284.167 66.4586 285.776 66.7714C286.536 66.9055 287.117 65.9224 286.759 65.2968C286.089 64.0456 284.927 63.1519 283.855 62.2581C282.425 61.0516 280.995 59.6664 279.297 58.7726C277.688 57.9236 275.454 59.8898 276.973 61.4091Z" fill="#666666"/>
<path d="M227.64 472.295C228.533 472.787 229.74 473.01 230.723 473.1C234.477 473.412 238.23 473.591 241.984 473.77C249.715 474.083 257.445 474.172 265.176 474.172C280.637 474.172 296.143 473.725 311.604 473.949C314.151 473.993 316.654 474.261 319.201 474.083C351.598 472.34 370.321 471.848 394.631 470.463C425.508 468.676 458.084 461.66 389.358 458.845C374.656 458.219 359.195 458.532 344.448 458.04C331.4 457.594 318.352 457.594 305.304 457.906C293.953 458.174 282.603 458.621 271.253 459.068C259.411 459.515 245.603 457.415 234.834 464.118C233.896 464.699 232.957 465.369 231.974 465.905C230.634 466.62 229.159 467.067 227.997 468.139C225.763 470.24 226.299 471.58 227.64 472.295Z" fill="url(#paint2_linear_502_38)"/>
<path opacity="0.56" d="M227.64 472.295C228.533 472.787 229.74 473.01 230.723 473.1C234.477 473.412 238.23 473.591 241.984 473.77C249.715 474.083 257.445 474.172 265.176 474.172C280.637 474.172 296.143 473.725 311.604 473.949C314.151 473.993 316.654 474.261 319.201 474.083C351.598 472.34 370.321 471.848 394.631 470.463C425.508 468.676 458.084 461.66 389.358 458.845C374.656 458.219 359.195 458.532 344.448 458.04C331.4 457.594 318.352 457.594 305.304 457.906C293.953 458.174 282.603 458.621 271.253 459.068C259.411 459.515 245.603 457.415 234.834 464.118C233.896 464.699 232.957 465.369 231.974 465.905C230.634 466.62 229.159 467.067 227.997 468.139C225.763 470.24 226.299 471.58 227.64 472.295Z" fill="url(#paint3_linear_502_38)"/>
<path d="M253.156 84.7354C253.156 84.7354 233.45 89.0252 207.845 170.934C207.845 170.934 203.644 199.757 236.846 241.449V218.078C236.846 209.275 231.662 198.55 230.009 189.792C227.194 174.867 232.734 167.404 239.259 154.535C243.951 145.285 248.643 135.99 253.156 126.651C253.156 126.695 262.808 99.8392 253.156 84.7354Z" fill="#736357"/>
<path d="M161.684 83.0369C158.556 84.4221 158.244 88.265 161.059 90.3206C179.737 103.994 195.645 116.372 209.185 127.678C210.839 129.063 212.805 130.493 215.039 129.868C216.469 129.465 217.676 128.304 218.748 127.186L232.913 112.842C234.254 111.457 234.388 109.223 233.182 107.927C221.608 95.8616 207.487 83.3944 190.283 70.4802C188.764 69.363 186.753 69.2289 185.278 70.212C178.218 74.904 170.309 79.1939 161.684 83.0369Z" fill="#666666"/>
<path d="M173.034 86.388C170.979 87.3711 170.755 89.9629 172.587 91.3482C185.055 100.866 196.092 109.803 205.878 118.249C207.085 119.321 208.559 120.439 210.213 120.036C211.285 119.768 212.179 118.964 212.983 118.16L223.663 107.837C224.691 106.854 224.78 105.156 223.842 104.218C214.994 95.2805 204.582 86.3434 192.383 77.4509C191.355 76.6912 189.97 76.6465 188.942 77.3615C184.072 80.6682 178.754 83.7069 173.034 86.388Z" fill="white"/>
<path d="M190.238 81.0258C189.881 80.8024 189.478 80.5342 189.032 80.5789C188.629 80.5789 188.272 80.8024 187.959 81.0258C187.244 81.4726 186.529 81.9641 185.859 82.5004C185.189 83.0813 184.563 83.7069 183.848 84.2431C183.312 84.69 182.731 85.0475 182.15 85.405C180.854 86.254 179.558 87.0583 178.218 87.9074C177.413 88.3989 176.788 88.667 176.252 89.2926C176.073 89.5161 175.894 89.7842 175.715 90.1417C176.609 91.0801 177.592 91.9291 178.62 92.7334C179.201 93.1803 179.961 94.2528 180.765 94.074C181.256 93.9847 181.748 93.359 182.105 93.0016C182.195 92.9122 182.284 92.8675 182.373 92.7781C182.552 93.5378 182.731 94.2974 182.91 95.0124C183.178 94.074 183.312 93.0909 183.401 92.1079C183.401 92.0185 183.401 91.8844 183.446 91.795C183.58 91.661 183.759 91.5269 183.893 91.3929C185.591 89.9182 187.289 88.3989 188.942 86.9243C189.613 86.3434 190.193 85.8518 190.953 85.405C191.221 85.2709 193.143 83.3494 193.187 83.3494C192.249 82.5897 191.311 81.6961 190.238 81.0258Z" fill="#CCCCCC"/>
<path d="M207.934 93.8063C207.443 93.7616 206.951 93.6276 206.504 93.4935C207.04 92.8679 207.621 92.287 208.157 91.6167C207.398 91.1252 206.593 90.589 205.834 90.0974C205.744 90.0081 205.61 89.9634 205.476 89.9634C205.208 89.9634 204.985 90.1868 204.806 90.4102C203.421 91.9742 201.455 93.2701 200.069 94.8341C198.952 96.13 198.639 96.4875 197.031 98.409C197.656 98.8559 199.176 100.286 199.801 100.733C199.98 100.152 200.472 99.7049 200.918 99.3027C202.527 97.8728 204.046 96.3088 205.521 94.7001C205.878 94.7001 206.236 94.6554 206.593 94.566C207.085 94.3873 207.532 94.1638 207.934 93.8063Z" fill="#B8CDD8"/>
<path d="M193.902 90.9008C193.411 90.4987 192.919 90.1412 192.428 89.739C192.338 89.6943 192.294 89.605 192.204 89.605C192.07 89.605 191.936 89.6943 191.847 89.7837C189.3 91.7946 186.663 94.2076 184.161 96.3525C184.563 96.71 185.993 97.8271 186.395 98.1399C186.485 98.2293 186.618 98.3187 186.752 98.3187C186.976 98.3187 187.155 98.1399 187.289 97.9612C187.378 97.8271 187.467 97.7377 187.602 97.6484C187.78 98.3187 187.915 98.989 188.093 99.6593C188.361 98.7209 188.495 97.7825 188.585 96.7994C188.585 96.71 188.585 96.6206 188.629 96.4866C190.328 94.5204 192.07 92.6436 193.902 90.9008Z" fill="#CCCCCC"/>
<path d="M205.52 104.084C204.939 103.592 204.359 103.101 203.778 102.564C203.688 102.52 203.599 102.43 203.509 102.43C203.42 102.43 203.331 102.52 203.286 102.564C202.08 103.592 200.873 104.62 199.667 105.692C198.773 106.452 197.879 107.256 197.298 108.329C197.924 108.955 198.55 109.491 199.22 109.982C199.309 110.072 199.399 110.116 199.533 110.116C199.667 110.116 199.801 110.072 199.89 109.982C200.203 109.804 200.471 109.535 200.739 109.267C200.962 109.58 201.141 109.848 201.365 110.161C201.409 110.25 201.499 110.34 201.588 110.295C201.633 109.625 201.678 108.955 201.722 108.284C203.063 106.988 204.359 105.603 205.52 104.084Z" fill="#CCCCCC"/>
<path d="M217.854 103.056C218.391 102.341 218.927 101.582 219.418 100.867C218.525 100.286 217.586 99.7497 216.692 99.1687C216.603 99.1241 216.514 99.0793 216.424 99.0793C216.335 99.0793 216.201 99.1687 216.111 99.2581C213.028 101.895 210.928 105.827 208.023 108.776C207.934 108.866 207.845 108.955 207.845 109.089C207.845 109.178 207.889 109.268 207.934 109.312C208.649 110.43 209.453 111.457 210.302 112.396C211.956 110.653 213.565 108.866 215.129 107.033C215.709 106.363 216.335 105.603 216.603 104.71C217.274 104.799 217.899 104.799 218.569 104.665C218.659 104.352 218.391 104.129 218.122 103.995C217.854 103.861 217.586 103.682 217.676 103.324C217.72 103.235 217.765 103.146 217.854 103.056Z" fill="#B8CDD8"/>
<path d="M332.607 347.845C330.82 315.403 334.573 282.291 334.216 249.67C335.378 238.364 333.501 226.835 328.675 216.2C328.362 215.53 328.049 214.86 327.468 214.368C325.636 212.804 322.463 213.653 320.006 214.457C296.501 222.456 268.796 220.579 247.391 209.274C243.146 214.592 241.94 221.116 240.912 227.461C239.214 237.649 237.382 247.838 236.935 258.071V258.115C236.845 260.305 236.801 262.539 236.845 264.729C237.158 277.509 240.108 290.066 242.476 302.667C243.995 310.889 245.336 319.156 245.47 327.468C245.559 334.26 244.397 340.516 246.274 347.174C250.832 363.574 250.832 381.493 252.754 398.25C254.809 416.214 256.82 434.178 258.518 452.186C258.563 452.901 258.652 453.616 258.697 454.331C259.814 454.554 276.526 457.772 276.526 454.197C277.867 419.297 279.208 384.353 280.548 349.453C281.129 334.752 279.833 285.106 284.346 271.119C286.223 271.253 288.055 271.432 289.932 271.566C300.121 317.771 312.231 398.697 322.464 444.902C323.357 448.969 324.474 453.348 327.692 455.984C330.954 458.621 336.986 457.861 337.969 453.795C334.886 418.448 334.529 383.146 332.607 347.845Z" fill="#4D4D4D"/>
<path d="M302.758 31.9163C302.758 19.8958 292.301 10.1543 279.387 10.1543C266.473 10.1543 256.016 19.8958 256.016 31.9163C256.016 33.9271 256.329 35.8486 256.865 37.6807C256.865 38.1723 256.91 38.6191 256.91 39.1553C256.821 43.4899 257.044 47.8691 257.893 52.1143C259.547 60.4258 263.836 68.1565 271.969 72.8932C274.695 74.4572 277.779 75.6637 281.041 75.6637C285.42 75.619 289.397 73.3847 292.435 70.6142C302.445 61.4089 303.294 47.6009 302.579 34.5974C302.669 33.7037 302.758 32.8547 302.758 31.9163Z" fill="#C8AE9A"/>
<path d="M277.689 454.331C272.863 453.974 267.947 454.153 263.166 454.868C259.457 457.325 255.435 459.336 251.145 460.856C249.894 461.302 248.598 461.749 247.66 462.598C246.721 463.447 246.364 464.922 247.213 465.816C247.973 466.62 249.268 466.709 250.475 466.709C259.457 466.799 268.394 466.128 277.242 464.698C277.778 464.609 278.314 464.52 278.716 464.162C279.029 463.894 279.163 463.537 279.297 463.134C280.146 460.23 279.565 456.923 277.689 454.331Z" fill="#3D322B"/>
<path d="M335.334 456.7C330.999 457.147 326.709 458.085 322.598 459.425C319.828 462.151 316.655 464.564 313.17 466.575C312.142 467.156 311.114 467.737 310.444 468.631C309.818 469.524 309.773 470.865 310.712 471.535C311.516 472.116 312.723 471.982 313.75 471.803C321.66 470.508 329.435 468.497 336.942 465.86C337.389 465.682 337.881 465.503 338.149 465.19C338.372 464.922 338.417 464.564 338.462 464.207C338.685 461.526 337.523 458.711 335.334 456.7Z" fill="#3D322B"/>
<path d="M335.199 235.594C335.11 213.251 335.021 190.908 334.976 168.565C334.886 149.752 330.641 129.778 327.826 111.144C326.307 100.911 324.475 97.3359 319.827 88.22C319.157 86.9241 319.068 86.0304 312.901 84.0643C311.56 83.6174 308.388 81.83 306.734 82.0981C298.691 83.4387 290.514 80.4001 282.515 81.7853C274.024 83.2153 259.77 78.9254 253.156 84.7345C244.219 92.5992 243.593 111.233 242.163 123.432C240.242 139.877 235.684 156.589 234.88 173.123C234.165 187.646 233.807 202.214 233.539 216.736C233.405 224.333 230.634 250.698 237.427 255.747C241.404 258.696 252.084 259.903 263.032 260.305C263.434 260.305 263.836 260.35 264.238 260.35C264.328 260.35 264.462 260.35 264.551 260.35C269.02 260.484 273.488 260.439 277.554 260.35C283.542 260.216 288.592 259.948 291.318 259.68C304.098 258.518 316.744 255.926 329.301 253.021C331.535 252.53 333.993 251.815 335.199 249.804C336.048 248.374 335.199 237.337 335.199 235.594Z" fill="#736357"/>
<path d="M292.032 102.073C292.524 98.5878 294.803 95.8173 297.797 94.0299C298.467 90.6337 299.093 87.2376 299.763 83.8415C299.852 83.7075 299.942 83.6181 299.986 83.484C300.21 83.0818 300.299 82.635 300.254 82.1882C299.45 82.0094 298.646 81.8753 297.886 81.7413C287.832 83.7521 277.509 83.7969 267.276 81.1604C267.41 81.9647 267.455 82.8138 267.366 83.6628C261.914 142.335 259.68 201.231 261.869 260.127C263.344 259.635 264.953 259.412 266.785 259.412C272.371 259.501 278.18 260.216 283.989 260.708C270.225 208.917 284.704 154.579 292.032 102.073ZM296.59 87.1483C296.858 87.1483 297.082 87.1036 297.35 87.1036C296.948 88.1313 296.546 89.1591 296.188 90.1869C296.278 89.2038 296.456 88.1761 296.59 87.1483Z" fill="#E8E8E8"/>
<path d="M309.907 21.8172C307.986 13.7291 302.177 7.42838 294.803 3.76414C283.274 -1.95565 263.791 -2.40249 257.893 11.3161C246.364 15.3378 252.307 33.5249 263.791 29.3691C263.925 29.3244 264.059 29.2797 264.193 29.235C270.137 32.1396 278.448 33.1227 285.777 33.2121C288.503 39.9149 294.088 45.6347 302.176 42.3727C309.952 39.2 311.65 29.1457 309.907 21.8172Z" fill="#382717"/>
<path d="M205.342 118.473C203.644 117.579 201.812 116.998 199.89 116.686C198.058 116.373 195.734 116.641 194.93 118.384C194.17 120.126 195.511 121.958 196.852 123.21C203.108 128.974 211.285 131.968 219.284 134.873C218.345 136.437 219.686 135.856 221.384 128.304C217.943 127.5 215.932 124.014 213.296 121.69C210.481 119.233 207.978 115.837 204.27 115.211C204.135 115.702 203.957 116.149 203.822 116.641C204.359 117.222 204.85 117.847 205.342 118.473Z" fill="#C8AE9A"/>
<path d="M222.502 128.572C219.329 127.008 215.04 125.578 213.341 127.723C211.599 129.958 214.548 133.488 217.229 135.901C223.083 141.218 228.982 146.491 234.835 151.809C246.275 162.131 257.983 172.677 271.88 179.782C277.555 182.687 284.347 185.055 289.173 182.955C292.167 181.659 293.776 178.888 295.072 176.118C301.551 162.444 283.901 158.467 271.076 152.211C254.9 144.346 238.678 136.437 222.502 128.572Z" fill="#736357"/>
<path d="M323.045 100.108C323.09 95.8179 322.777 91.3047 320.677 87.6851C313.215 74.905 295.742 95.3264 291.899 102.834C284.079 118.116 277.913 151.139 273.712 166.734C272.863 169.862 272.014 173.169 272.863 176.208C274.338 181.57 284.75 187.424 289.71 184.072C294.134 181.078 309.818 151.273 311.919 146.268C317.996 131.611 322.777 116.061 323.045 100.108Z" fill="#736357"/>
<path d="M275.499 66.8166C276.125 66.8166 276.795 66.8166 277.331 66.4591C277.867 66.1463 278.225 65.3866 277.867 64.8504C275.946 64.8057 274.069 64.8057 272.147 64.761C271.567 64.761 270.896 64.761 270.405 65.1185C267.545 67.0847 274.918 66.8166 275.499 66.8166Z" fill="#382717"/>
<path d="M387.145 471.392C396.235 471.682 405.324 471.599 414.413 471.475C439.771 471.143 465.13 470.852 490.488 470.52C494.431 470.479 499.536 469.732 499.785 467.034C500.034 464.627 496.008 463.091 492.605 462.344C480.444 459.729 467.662 459.19 455.045 458.692C436.493 457.986 417.899 457.405 399.347 456.907C387.768 456.617 375.856 456.368 365.066 459.024C359.172 460.476 350.54 466.619 359.919 469.649C362.534 470.479 367.763 470.147 370.586 470.354C376.106 470.811 381.584 471.184 387.145 471.392Z" fill="url(#paint4_linear_502_38)"/>
<path opacity="0.22" d="M387.145 471.392C396.235 471.682 405.324 471.599 414.413 471.475C439.771 471.143 465.13 470.852 490.488 470.52C494.431 470.479 499.536 469.732 499.785 467.034C500.034 464.627 496.008 463.091 492.605 462.344C480.444 459.729 467.662 459.19 455.045 458.692C436.493 457.986 417.899 457.405 399.347 456.907C387.768 456.617 375.856 456.368 365.066 459.024C359.172 460.476 350.54 466.619 359.919 469.649C362.534 470.479 367.763 470.147 370.586 470.354C376.106 470.811 381.584 471.184 387.145 471.392Z" fill="url(#paint5_linear_502_38)"/>
<path d="M438.194 145.55C433.047 135.215 428.897 124.466 424.747 113.717C423.211 109.691 422.132 104.503 425.286 101.556C427.196 99.7716 430.184 99.4811 432.674 100.311C435.164 101.141 437.239 102.884 439.066 104.752C441.763 107.533 444.004 110.687 446.121 113.883C455.708 128.45 457.244 147.708 458.489 165.098C459.402 178.088 457.327 191.867 462.888 203.654C460.813 204.443 458.696 205.231 456.621 206.02C456.123 206.186 455.584 206.393 455.086 206.144C454.588 205.895 454.422 205.314 454.256 204.775C451.724 195.146 449.898 185.434 446.619 175.889C443.257 166.135 442.718 154.888 438.194 145.55Z" fill="#EDEDED"/>
<path d="M480.61 215.358C481.606 215.524 482.644 215.732 483.557 215.317C484.76 214.819 485.341 213.491 485.839 212.245C492.231 195.603 494.057 177.59 495.177 159.785C491.401 158.291 487.25 157.959 483.225 157.669C472.226 156.839 461.186 156.009 450.188 155.179C443.714 154.68 437.156 154.224 430.765 155.428C430.018 173.523 429.229 191.577 428.482 209.672C428.399 210.793 476.335 214.57 480.61 215.358Z" fill="#E2E2E2"/>
<path d="M461.974 185.227C462.058 185.227 462.183 185.185 462.266 185.102C462.099 185.102 462.016 185.144 461.974 185.227Z" fill="white"/>
<path d="M456.248 189.46C459.278 190.082 462.349 190.622 465.42 191.078C465.877 191.161 466.209 190.871 466.375 190.58C466.707 190.414 466.956 190.082 466.832 189.626C465.545 185.061 464.258 180.495 462.972 175.93C462.723 175.058 461.561 175.141 461.312 175.93C459.9 180.246 458.033 184.313 455.75 188.256C455.459 188.63 455.667 189.335 456.248 189.46ZM462.017 178.96C462.972 182.404 463.968 185.808 464.922 189.252C462.515 188.879 460.15 188.464 457.784 188.007C459.444 185.061 460.855 182.072 462.017 178.96Z" fill="white"/>
<path d="M435.331 86.0341C432.674 89.3543 428.69 91.3465 424.872 93.1726C421.717 94.7083 418.397 96.2439 414.911 95.9119C408.893 95.3308 404.992 89.4374 402.004 84.1664C397.521 76.2393 392.914 67.8972 392.831 58.808C392.707 50.5488 396.608 42.3312 403.041 37.1848C409.474 32.0384 418.356 30.0878 426.366 31.9969C435.995 34.3211 447.201 41.0861 444.793 52.2505C443.714 57.3139 441.846 62.0867 440.975 67.2331C439.937 73.5416 439.439 80.8462 435.331 86.0341Z" fill="#EDDCD1"/>
<path d="M447.2 42.1237C449.897 48.1002 450.686 54.7822 451.06 61.3397C451.101 61.9208 451.101 62.5848 450.769 63.0414C450.188 63.8299 448.984 63.7469 448.03 63.5809C437.862 61.7547 427.735 59.9286 417.567 58.144C414.122 57.5214 409.972 57.1479 407.73 59.8041C406.485 61.2567 406.195 63.2904 406.07 65.1996C405.738 69.7234 406.07 74.2473 407.025 78.6881C404.327 75.2433 403.248 70.844 402.874 66.4862C402.667 63.996 402.044 60.7172 399.554 60.3852C397.105 60.0947 395.611 63.3734 396.276 65.7391C396.94 68.1463 398.766 70.0139 399.679 72.2966C400.384 74.0812 400.55 76.0319 400.758 77.941C401.339 83.3364 402.376 88.7319 404.742 93.5878C407.108 98.4436 410.884 102.801 415.823 105.001C411.756 103.383 407.73 101.722 403.663 100.104C399.388 98.4021 395.155 96.659 390.921 94.9158C387.892 93.6707 384.821 92.3011 382.538 89.9769C380.961 88.3998 379.799 86.4492 378.927 84.374C374.445 74.1642 376.022 62.3358 379.176 51.6695C381.666 43.3273 385.402 34.8192 392.582 29.8388C400.924 24.0699 411.922 24.4019 422.007 25.315C432.342 26.3526 442.8 32.3705 447.2 42.1237Z" fill="#EDDDB2"/>
<path d="M381.542 350.699C382.87 320.485 379.965 289.648 380.131 259.268C379.218 248.726 380.67 237.977 384.323 228.057C384.53 227.435 384.779 226.812 385.236 226.356C386.647 224.903 389.054 225.65 390.963 226.439C408.975 233.868 430.267 232.083 446.66 221.542C449.898 226.48 450.852 232.581 451.682 238.433C453.01 247.938 454.422 257.4 454.795 266.946V266.988C454.878 269.021 454.92 271.096 454.878 273.13C454.671 285.041 452.388 296.745 450.645 308.491C449.483 316.127 448.487 323.847 448.404 331.608C448.321 337.958 449.234 343.727 447.823 349.952C444.378 365.267 444.378 381.91 442.925 397.515C441.39 414.241 441.099 413.701 439.854 430.469C439.812 431.133 439.771 431.797 439.688 432.461C438.858 432.668 425.992 435.657 425.992 432.336C424.913 399.839 422.547 384.566 421.468 352.069C421.012 338.373 421.924 292.138 418.438 279.106C417.027 279.231 415.575 279.397 414.163 279.563C406.402 322.602 398.517 380.706 390.756 423.745C390.092 427.522 389.261 431.631 386.771 434.08C384.281 436.528 379.633 435.864 378.886 432.087C381.168 399.217 380.131 383.611 381.542 350.699Z" fill="#736357"/>
<path d="M416.282 127.288C416.323 127.288 416.406 127.33 416.448 127.33C416.365 127.33 416.323 127.288 416.282 127.288Z" fill="white"/>
<path d="M415.948 127.205C415.989 127.205 415.989 127.246 416.031 127.246C415.989 127.205 415.948 127.205 415.948 127.205Z" fill="white"/>
<path d="M416.072 127.247C416.031 127.247 416.031 127.205 416.031 127.205C416.114 127.246 416.198 127.246 416.281 127.288C416.198 127.288 416.156 127.288 416.072 127.247Z" fill="#1D4360"/>
<path d="M377.35 224.655C384.322 212.162 387.892 197.553 386.024 183.318C384.613 172.61 380.255 161.736 383.119 151.319C384.613 145.923 387.933 141.233 390.838 136.46C397.479 125.504 402.044 113.302 404.285 100.685C404.41 100.021 404.534 99.3565 404.991 98.9C405.945 97.9454 407.564 98.4849 408.809 98.9415C413.25 100.643 418.23 100.851 422.796 99.647C425.41 98.9415 426.033 97.9454 427.652 100.145C429.021 102.013 429.685 105.167 430.516 107.325C434.251 117.037 437.53 127.039 438.318 137.456C438.733 142.686 438.526 147.998 440.061 153.02C441.306 157.129 443.672 160.74 445.622 164.6C452.595 178.586 453.467 194.772 458.655 209.548C459.485 211.955 460.481 214.32 460.73 216.852C460.979 219.384 460.439 222.123 458.613 223.908C457.326 225.194 455.542 225.817 453.84 226.398C451.35 227.269 448.818 228.183 446.328 229.054C442.842 230.299 439.356 231.503 435.745 232.208C431.346 233.08 426.822 233.121 422.298 233.163C413.997 233.246 405.738 233.37 397.437 233.453C392.706 233.495 388.016 233.578 383.285 233.204C380.131 232.955 376.188 231.71 375.939 228.556C375.897 227.228 376.644 225.9 377.35 224.655Z" fill="#F2F2F2"/>
<path d="M429.56 431.217C428.606 431.175 427.61 431.051 426.78 431.549C425.867 432.088 425.41 433.167 425.161 434.205C423.542 440.638 426.033 447.278 426.738 453.877C427.153 457.779 426.946 461.763 427.568 465.664C428.896 465.54 430.225 465.415 431.553 465.291C431.262 462.967 431.221 460.642 431.47 458.318C431.553 457.571 431.677 456.824 432.092 456.202C432.507 455.579 433.337 455.205 434.043 455.454C434.665 455.704 434.956 456.368 435.205 456.99C435.744 458.443 436.201 459.937 436.533 461.431C436.699 462.261 436.865 463.174 437.446 463.797C438.318 464.793 439.853 464.876 441.223 464.834C446.162 464.751 451.1 464.668 455.998 464.585C458.114 464.544 460.48 464.378 461.808 462.759C463.427 460.767 462.431 457.613 460.605 455.87C458.737 454.085 456.247 453.172 454.089 451.802C451.723 450.308 449.731 448.233 448.32 445.784C445.913 441.634 445.83 435.367 442.634 431.756C441.306 430.262 439.812 430.511 437.986 430.802C435.205 431.175 432.424 431.383 429.56 431.217Z" fill="#3D322B"/>
<path d="M378.139 426.152C377.683 426.111 377.226 426.152 376.853 426.401C376.604 426.567 376.438 426.858 376.313 427.148C374.528 430.801 374.611 435.034 373.864 439.018C372.827 444.663 370.212 449.851 368.054 455.163C367.431 456.699 366.85 458.317 366.892 459.978C366.975 463.215 369.589 465.996 372.619 467.158C375.649 468.32 379.052 468.112 382.248 467.531C382.912 467.407 383.576 467.282 384.157 466.992C384.78 466.701 385.278 466.203 385.734 465.705C389.635 461.472 389.843 455.163 390.051 449.394C390.175 446.074 390.382 442.795 390.631 439.516C390.839 436.736 391.877 433.208 391.379 430.469C390.964 428.145 389.221 427.979 387.187 427.73C384.157 427.232 381.21 426.318 378.139 426.152Z" fill="#3D322B"/>
<path d="M400.758 207.016C401.297 227.602 403.082 248.519 413.873 267.943C409.972 264.332 401.131 264.664 394.864 266.573C388.597 268.482 383.036 271.554 376.188 272.342C370.295 273.006 363.944 271.761 359.753 269.064C351.659 263.917 352.78 255.575 354.565 248.395C363.446 212.37 373.532 176.387 378.927 140.113C380.006 132.974 381.002 125.587 386.439 119.278C389.635 115.585 394.325 112.306 395.611 108.156C396.275 106.039 395.985 103.839 397.064 101.806C398.143 99.7719 407.066 97.5307 410.387 98.0703C415.657 103.964 406.61 111.061 405.697 117.701C404.701 124.881 403.871 132.02 403.165 139.2C401.712 153.809 400.882 168.46 400.592 183.11C400.55 191.079 400.55 199.048 400.758 207.016Z" fill="#ACB18F"/>
<path d="M434.417 228.639C433.088 240.385 430.93 252.462 435.911 263.834C436.45 265.038 437.073 266.283 438.359 267.237C441.679 269.686 447.698 269.437 452.844 269.313C464.88 268.981 464.05 265.909 474.882 269.23C472.184 253.624 469.487 238.019 466.789 222.414C463.676 204.319 460.522 186.14 451.848 168.792C439.729 144.554 437.861 125.047 428.232 100.395C427.61 98.7759 419.06 99.3154 416.611 98.5684C414.246 100.727 418.562 106.869 419.517 109.525C421.052 113.717 422.505 117.909 423.833 122.142C426.489 130.567 428.731 139.075 430.515 147.625C434.126 164.807 435.952 182.156 436.035 199.504C436.035 209.174 435.496 218.928 434.417 228.639Z" fill="#ACB18F"/>
<path d="M417.982 198.258C419.268 198.383 420.721 198.466 421.427 199.545C421.8 200.126 421.883 200.914 422.464 201.329C422.838 201.62 423.336 201.62 423.792 201.703C425.701 202.076 427.279 203.861 427.362 205.812C427.445 207.762 426.116 209.713 424.249 210.294C422.132 210.958 419.849 209.962 417.899 208.883C414.246 206.932 410.802 204.691 407.523 202.159C407.149 201.869 406.776 201.578 406.61 201.163C405.697 199.13 407.15 196.1 409.225 195.934C411.673 195.768 415.284 198.051 417.982 198.258Z" fill="#EDDCD1"/>
<path d="M404.286 191.328C396.608 185.019 391.129 176.345 387.518 167.131C386.439 164.351 385.485 161.487 385.111 158.54C384.613 154.929 384.945 151.319 385.236 147.708C385.651 142.81 386.066 137.83 387.726 133.223C388.805 130.152 390.423 127.247 391.669 124.217C393.536 119.61 394.491 114.713 395.445 109.857C395.736 108.446 395.985 106.993 395.694 105.624C395.404 104.212 394.408 102.884 392.997 102.635C391.461 102.386 390.05 103.465 388.888 104.544C378.595 114.215 373.075 128.035 370.668 141.939C368.966 151.775 368.759 162.234 372.743 171.365C374.403 175.141 376.727 178.586 379.218 181.865C386.522 191.411 395.819 200.002 407.274 203.571C407.689 203.696 408.146 203.82 408.478 203.613C408.81 203.447 408.934 203.073 409.1 202.741C409.847 200.957 411.756 198.3 410.843 196.308C410.013 194.44 405.821 192.614 404.286 191.328Z" fill="#EDEDED"/>
<path d="M602.747 474.173C610.259 474.131 617.813 473.675 625.325 473.218C646.284 471.931 667.243 470.645 688.243 469.358C691.522 469.151 695.714 468.238 695.839 465.54C695.963 463.133 692.601 461.722 689.779 461.141C679.652 458.982 669.069 458.941 658.61 458.941C643.254 458.941 627.856 459.065 612.5 459.273C602.913 459.397 593.035 459.646 584.195 462.676C579.38 464.336 572.367 470.811 580.252 473.467C582.41 474.214 586.768 473.633 589.092 473.758C593.575 474.048 598.182 474.214 602.747 474.173Z" fill="url(#paint6_linear_502_38)"/>
<path opacity="0.22" d="M602.747 474.173C610.259 474.131 617.813 473.675 625.325 473.218C646.284 471.931 667.243 470.645 688.243 469.358C691.522 469.151 695.714 468.238 695.839 465.54C695.963 463.133 692.601 461.722 689.779 461.141C679.652 458.982 669.069 458.941 658.61 458.941C643.254 458.941 627.856 459.065 612.5 459.273C602.913 459.397 593.035 459.646 584.195 462.676C579.38 464.336 572.367 470.811 580.252 473.467C582.41 474.214 586.768 473.633 589.092 473.758C593.575 474.048 598.182 474.214 602.747 474.173Z" fill="url(#paint7_linear_502_38)"/>
<path d="M566.141 104.669C565.892 103.134 564.73 101.93 563.568 100.851C562.987 100.312 562.364 99.7305 561.742 99.2325C558.463 96.6593 554.188 95.3727 549.996 95.7462C548.792 95.8707 547.547 96.1198 546.676 96.9083C545.97 97.5724 545.555 98.4855 545.389 99.44C545.348 99.6476 545.306 99.8965 545.389 100.104C545.555 100.893 546.51 101.183 547.298 101.308C548.129 101.432 549 101.598 549.664 102.096C550.328 102.594 550.743 103.59 550.328 104.296C550.121 104.628 549.788 104.877 549.705 105.25C549.581 105.873 550.204 106.413 550.826 106.62C553.109 107.367 555.599 106.164 557.923 106.662C558.629 106.828 559.334 107.118 560.04 107.326C560.746 107.492 561.534 107.575 562.198 107.201C562.862 107.118 563.568 106.994 564.232 106.828C564.896 106.662 565.643 106.413 565.975 105.832C566.182 105.499 566.224 105.084 566.141 104.669Z" fill="#EADDD0"/>
<path d="M528.415 78.0245C533.852 77.2359 539.372 76.4058 544.891 76.6549C545.971 76.6964 547.133 76.8208 547.921 77.5264C548.668 78.1904 548.917 79.2281 549.166 80.2241C554.811 104.462 560.414 128.7 566.058 152.938C566.141 153.353 566.266 153.768 566.183 154.183C566.017 155.137 565.062 155.677 564.232 156.092C550.121 162.94 533.852 163.231 518.205 163.355C516.835 163.355 515.383 163.355 514.304 162.567C513.1 161.736 512.643 160.242 512.228 158.831C505.837 135.963 504.343 111.974 498.989 88.8153C498.615 87.1966 498.2 85.4535 498.74 83.8349C499.902 80.3486 508.037 81.0127 511.025 80.5977C516.794 79.7676 522.604 78.896 528.415 78.0245Z" fill="#545454"/>
<path d="M528.705 81.1372C533.727 80.3901 538.832 79.6431 543.895 79.7676C544.892 79.8091 545.971 79.8921 546.676 80.5146C547.34 81.0957 547.589 81.9673 547.797 82.8388C552.736 103.839 557.675 124.84 562.613 145.882C562.696 146.214 562.779 146.588 562.696 146.961C562.53 147.791 561.659 148.289 560.87 148.663C547.797 154.764 532.772 155.179 518.329 155.469C517.084 155.511 515.756 155.511 514.719 154.847C513.639 154.141 513.183 152.813 512.851 151.61C507.207 131.771 506.045 110.978 501.355 90.8904C501.023 89.4793 500.69 87.9852 501.188 86.5741C502.309 83.5029 509.78 84.0424 512.519 83.6274C517.956 82.7558 523.351 81.9258 528.705 81.1372Z" fill="#F7F7F7"/>
<path d="M538.002 158.832C538.127 159.039 538.334 159.205 538.5 159.33C538.957 159.62 539.455 159.786 539.994 159.745C540.534 159.703 541.032 159.496 541.364 159.122C542.401 157.919 541.986 155.843 540.202 155.719C538.874 155.636 537.214 157.545 538.002 158.832Z" fill="#F7F7F7"/>
<path d="M594.488 136.669C590.296 131.481 587.432 125.339 583.157 120.234C577.388 113.344 571.246 108.405 567.428 100.271C565.643 103.051 559.666 105.832 557.882 108.613C564.813 118.034 571.744 125.961 574.649 138.91C576.019 144.887 582.493 153.81 585.606 159.122C587.266 161.945 589.507 164.393 591.873 166.676C596.978 171.615 603.037 175.931 610.01 177.176C620.593 179.044 630.927 172.071 630.72 160.741C630.512 150.573 616.733 151.527 609.761 148.373C603.826 145.717 598.514 141.691 594.488 136.669Z" fill="#E0C74E"/>
<path d="M613.87 94.7085C617.19 96.0781 620.386 96.9497 622.71 96.9912C625.45 97.0327 627.981 95.6631 630.388 94.3765C635.327 91.6788 640.515 88.6906 643.047 83.6687C644.5 80.722 644.873 77.3602 645.163 74.0815C645.869 65.8223 646.201 57.5631 646.118 49.2625C646.077 45.0292 645.869 40.5053 643.503 36.9776C639.561 31.0011 631.384 29.9635 624.204 29.5485C617.149 29.1334 609.678 28.8014 603.411 32.1217C596.895 35.608 598.39 40.7543 597.891 47.1458C597.269 55.156 596.895 63.2076 596.812 71.2177C596.771 75.7831 596.937 80.5974 599.302 84.4987C601.585 88.1925 607.894 92.2598 613.87 94.7085Z" fill="#EADDD0"/>
<path d="M654.875 352.111C653.713 320.901 655.995 289.109 655.746 257.691C656.452 246.817 655.248 235.736 652.218 225.485C652.011 224.862 651.845 224.198 651.471 223.7C650.309 222.206 648.359 222.995 646.823 223.783C632.172 231.503 614.824 229.718 601.418 218.886C598.762 223.991 598.015 230.299 597.393 236.359C596.355 246.153 595.235 255.948 594.944 265.826V265.867C594.902 267.984 594.861 270.101 594.902 272.217C595.11 284.502 596.978 296.58 598.472 308.699C599.426 316.584 600.298 324.553 600.381 332.521C600.464 339.079 599.758 345.056 600.92 351.447C603.784 367.218 603.826 384.401 605.029 400.545C606.357 417.811 607.644 435.076 608.723 452.383C608.765 453.088 608.806 453.752 608.847 454.458C609.553 454.707 620.012 457.737 620.012 454.292C620.8 420.716 621.589 387.14 622.378 353.564C622.71 339.453 621.838 291.724 624.619 278.235C625.781 278.401 626.943 278.526 628.105 278.692C634.538 323.1 642.258 400.919 648.691 445.327C649.272 449.229 649.936 453.462 651.969 455.994C654.003 458.525 657.78 457.778 658.402 453.918C656.369 419.969 656.12 386.061 654.875 352.111Z" fill="#4D4D4D"/>
<path d="M624.578 454.168C624.453 453.795 624.37 453.38 624.246 453.006C622.959 447.943 622.295 442.713 622.295 437.484C622.295 435.118 622.419 432.711 621.88 430.387C618.85 430.428 610.342 429.889 607.312 429.931C607.063 429.931 606.773 429.93 606.565 430.096C606.358 430.262 606.275 430.595 606.233 430.844C604.905 438.065 609.388 445.992 607.769 453.172C607.105 456.036 604.449 457.074 602 458.526C599.883 459.813 595.691 462.925 593.16 462.925C591.707 463.507 590.172 464.088 589.092 465.25C588.013 466.412 587.598 468.321 588.594 469.566C589.466 470.645 591.043 470.728 592.413 470.77C602.955 470.853 613.538 469.94 623.913 468.03C624.536 467.906 625.2 467.781 625.657 467.325C626.03 466.951 626.196 466.453 626.321 465.997C627.524 461.39 625.781 458.153 624.578 454.168Z" fill="#BE9F3E"/>
<path d="M663.093 456.866C662.761 455.745 662.014 454.79 661.64 453.711C661.225 452.591 661.433 451.18 661.433 449.976C661.433 444.498 661.433 439.061 661.433 433.582C661.433 431.922 661.267 429.971 659.856 429.141C658.901 428.56 657.656 428.726 656.577 428.934C653.381 429.473 650.144 430.054 646.948 430.594C646.118 430.76 645.164 430.926 644.707 431.632C644.25 432.337 644.375 433.25 644.541 434.08C645.496 439.351 645.869 444.705 645.703 450.018C645.662 451.553 645.537 453.089 645.703 454.624C642.009 457.779 637.942 460.518 633.543 462.634C632.256 463.257 630.928 463.88 630.015 464.959C629.102 466.079 628.853 467.822 629.849 468.86C630.72 469.773 632.132 469.773 633.335 469.69C642.798 469.109 652.261 467.615 661.433 465.249C661.972 465.125 662.553 464.959 662.927 464.502C663.217 464.17 663.342 463.714 663.425 463.257C663.882 461.182 663.757 458.941 663.093 456.866Z" fill="#BE9F3E"/>
<path d="M613.828 106.081C615.197 105.624 616.567 105.085 617.895 104.587C624.66 101.972 631.425 99.3572 638.149 96.784C639.145 96.4104 640.224 95.9954 641.261 96.2029C642.091 96.3689 642.755 96.867 643.419 97.4065C656.078 107.575 659.523 124.135 663.009 139.2C675.336 192.449 679.278 247.441 674.672 301.81C644.499 306.998 614.035 310.401 583.406 311.978C585.108 311.895 588.552 274.667 588.967 271.015C591.25 249.516 592.454 227.851 592.205 206.228C591.956 184.522 593.076 162.857 594.612 141.192C595.234 132.435 595.94 123.678 596.728 114.921C597.019 111.476 606.938 107.948 609.428 107.409C610.964 106.994 612.417 106.537 613.828 106.081Z" fill="#FCEE9F"/>
<path d="M545.888 132.933C542.942 129.156 540.369 125.13 537.754 121.063C536.799 119.527 535.928 117.535 536.965 116.041C537.588 115.17 538.791 114.796 539.87 114.921C540.949 115.045 541.946 115.585 542.859 116.207C544.187 117.12 545.349 118.199 546.511 119.361C551.616 124.508 553.857 132.227 555.808 139.2C557.26 144.429 557.551 150.198 560.788 154.556C560 155.054 559.211 155.552 558.422 156.05C558.256 156.175 558.007 156.299 557.8 156.216C557.592 156.175 557.468 155.926 557.343 155.718C555.517 151.983 553.981 148.206 551.823 144.595C549.665 140.902 548.503 136.378 545.888 132.933Z" fill="#EDEDED"/>
<path d="M568.963 157.876C569.378 157.876 569.835 157.876 570.167 157.627C570.624 157.336 570.748 156.714 570.831 156.174C572.035 148.87 571.288 141.358 570.291 134.012C568.631 133.721 566.93 133.929 565.228 134.136C560.663 134.717 556.097 135.298 551.532 135.879C548.834 136.211 546.137 136.585 543.646 137.581C544.85 145.01 546.054 152.439 547.216 159.868C547.299 160.366 567.179 157.917 568.963 157.876Z" fill="#E2E2E2"/>
<path d="M539.745 108.903C538.915 110.48 537.462 111.6 536.051 112.679C534.889 113.551 533.685 114.464 532.233 114.63C529.742 114.879 527.667 112.804 526.007 110.895C523.517 108.031 520.944 105.001 520.155 101.307C519.408 97.9456 520.321 94.2934 522.521 91.6372C524.72 89.0224 528.165 87.4453 531.61 87.5699C535.719 87.7359 540.865 89.5205 540.824 94.2934C540.824 96.4515 540.45 98.5682 540.533 100.726C540.616 103.424 541.031 106.454 539.745 108.903Z" fill="#EDDCD1"/>
<path d="M540.949 90.0603C542.567 92.26 543.397 94.9162 544.103 97.5724C544.186 97.8214 544.228 98.0704 544.145 98.2779C543.979 98.6514 543.48 98.7345 543.065 98.7345C538.791 98.8175 534.474 98.942 530.2 99.025C528.747 99.0665 527.045 99.2325 526.34 100.519C525.966 101.225 526.007 102.055 526.09 102.843C526.339 104.711 526.838 106.537 527.585 108.28C526.215 107.118 525.385 105.375 524.887 103.632C524.596 102.636 524.057 101.349 523.019 101.432C521.982 101.515 521.65 102.968 522.148 103.881C522.604 104.794 523.517 105.417 524.098 106.288C524.555 106.952 524.763 107.741 525.012 108.488C525.676 110.646 526.547 112.763 527.917 114.547C529.286 116.332 531.195 117.784 533.395 118.282C531.61 117.95 529.826 117.618 528.041 117.286C526.174 116.954 524.265 116.581 522.397 116.207C521.069 115.958 519.699 115.668 518.578 114.879C517.79 114.381 517.167 113.676 516.628 112.887C513.972 109.11 513.598 104.13 514.013 99.523C514.345 95.9122 515.134 92.1354 517.665 89.5207C520.571 86.491 525.094 85.7024 529.286 85.2459C533.603 84.8309 538.334 86.408 540.949 90.0603Z" fill="#EDDDB2"/>
<path d="M527.626 170.244C529.41 164.558 529.659 158.333 527.709 152.688C526.256 148.455 523.558 144.388 523.89 139.905C524.056 137.581 525.011 135.381 525.8 133.182C527.584 128.16 528.456 122.806 528.331 117.494C528.331 117.203 528.331 116.913 528.456 116.705C528.746 116.248 529.452 116.332 530.033 116.415C531.983 116.747 534.017 116.415 535.802 115.543C536.798 115.045 536.964 114.588 537.835 115.335C538.541 115.999 539.08 117.203 539.578 118.033C541.903 121.685 544.061 125.504 545.265 129.654C545.846 131.729 546.219 133.929 547.257 135.838C548.128 137.415 549.373 138.702 550.494 140.071C554.52 145.176 556.18 151.734 559.542 157.295C560.081 158.208 560.662 159.08 560.994 160.117C561.326 161.114 561.326 162.276 560.704 163.189C560.289 163.811 559.625 164.226 558.961 164.6C558.006 165.181 557.051 165.72 556.138 166.301C554.81 167.09 553.524 167.879 552.112 168.46C550.369 169.165 548.543 169.58 546.717 169.954C543.355 170.701 539.994 171.406 536.632 172.153C534.723 172.568 532.814 172.983 530.863 173.232C529.535 173.398 527.833 173.232 527.501 171.946C527.252 171.406 527.46 170.825 527.626 170.244Z" fill="#F2F2F2"/>
<path d="M535.719 161.113C537.628 169.455 540.118 177.839 546.136 184.853C544.227 183.691 540.658 184.563 538.292 185.891C535.885 187.177 533.893 188.92 531.154 189.792C528.788 190.539 526.132 190.581 524.181 189.834C520.446 188.422 520.239 184.895 520.363 181.865C520.986 166.426 522.106 150.945 521.276 135.713C521.11 132.725 520.903 129.612 522.604 126.583C523.6 124.798 525.219 123.096 525.426 121.312C525.509 120.399 525.219 119.527 525.509 118.614C525.8 117.701 529.245 116.041 530.614 115.958C533.27 117.908 530.158 121.561 530.324 124.341C530.531 127.33 530.78 130.318 531.071 133.306C531.693 139.366 532.565 145.425 533.685 151.401C534.308 154.639 534.972 157.876 535.719 161.113Z" fill="#ACB18F"/>
<path d="M551.242 167.132C551.657 172.029 551.823 177.134 554.77 181.367C555.102 181.824 555.434 182.28 556.056 182.529C557.634 183.277 560.041 182.654 562.116 182.156C566.972 181.035 566.391 179.832 571.081 180.288C568.673 174.146 566.308 168.003 563.901 161.861C561.12 154.764 558.339 147.584 553.359 141.234C546.428 132.352 544.02 124.549 538.044 115.294C537.67 114.672 534.226 115.626 533.147 115.502C532.358 116.581 534.641 118.739 535.263 119.735C536.259 121.312 537.172 122.931 538.086 124.508C539.87 127.745 541.489 131.024 542.942 134.344C545.847 141.068 548.046 147.957 549.499 155.013C550.287 159.039 550.869 163.064 551.242 167.132Z" fill="#ACB18F"/>
<path d="M542.028 156.092C542.567 156.009 543.148 155.967 543.522 156.341C543.729 156.548 543.812 156.88 544.103 157.005C544.269 157.088 544.476 157.046 544.684 157.046C545.514 157.046 546.261 157.627 546.469 158.416C546.676 159.204 546.261 160.117 545.555 160.491C544.725 160.947 543.729 160.698 542.858 160.449C541.198 159.951 539.62 159.329 538.085 158.582C537.919 158.499 537.753 158.416 537.628 158.25C537.089 157.503 537.421 156.133 538.251 155.884C539.247 155.594 540.907 156.258 542.028 156.092Z" fill="#EDDCD1"/>
<path d="M535.844 154.431C532.192 152.48 529.245 149.409 527.004 145.964C526.34 144.927 525.717 143.848 525.302 142.686C524.804 141.275 524.638 139.739 524.43 138.245C524.181 136.211 523.974 134.136 524.223 132.144C524.43 130.816 524.845 129.488 525.094 128.16C525.468 126.126 525.468 124.051 525.426 121.976C525.426 121.395 525.426 120.772 525.177 120.232C524.928 119.693 524.43 119.236 523.808 119.236C523.144 119.278 522.687 119.817 522.314 120.357C518.91 125.171 517.831 131.231 517.997 137.124C518.122 141.275 518.91 145.549 521.276 148.953C522.272 150.364 523.517 151.567 524.804 152.688C528.581 155.967 533.063 158.706 538.043 159.204C538.209 159.204 538.417 159.245 538.541 159.121C538.666 159.038 538.708 158.872 538.708 158.706C538.874 157.917 539.413 156.672 538.873 155.925C538.458 155.22 536.591 154.805 535.844 154.431Z" fill="#EDEDED"/>
<path d="M553.565 159.537C553.109 157.835 552.611 156.134 551.739 154.556C550.619 152.523 548.834 150.904 546.842 149.742C545.597 148.995 544.102 148.414 542.691 148.788C541.446 149.161 540.533 150.282 540.118 151.485C539.703 152.73 539.786 154.058 539.994 155.345C540.907 160.699 546.261 169.373 552.694 167.962C553.814 167.713 555.059 167.049 555.184 165.887C555.225 165.472 555.101 165.057 555.018 164.642C554.52 162.982 554.022 161.28 553.565 159.537Z" fill="#EADDD0"/>
<path d="M616.816 183.194C613.704 190.623 609.387 198.799 601.543 200.75C596.438 201.995 591.084 200.169 586.229 198.052C576.558 193.819 567.386 188.465 559.002 182.073C553.69 178.006 548.128 172.071 549.747 165.596C549.996 164.6 550.453 163.604 551.324 163.023C553.358 161.695 555.89 163.563 557.674 165.181C566.39 173.15 577.388 178.67 589.009 180.911C590.462 181.202 591.997 181.409 593.408 181.077C597.185 180.205 599.053 176.014 600.257 172.32C605.154 157.711 609.346 142.894 612.832 127.911C613.496 125.006 614.16 122.059 615.862 119.611C618.476 115.834 623.581 113.925 628.064 115.045C642.631 118.739 633.957 136.046 631.052 145.052C626.819 157.918 622.087 170.66 616.816 183.194Z" fill="#E0C74E"/>
<path d="M692.352 135.589C690.027 132.975 686.251 131.315 685.42 127.87C684.798 125.172 686.375 122.433 688.243 120.399C690.152 118.366 692.435 116.622 693.804 114.215C696.585 109.235 693.929 102.055 688.533 100.104C686.334 99.3155 683.926 99.3156 681.768 98.4025C679.61 97.531 677.701 95.1652 678.573 92.9655C679.444 90.6829 682.972 89.3133 682.183 87.0306C681.934 86.3666 681.395 85.8685 680.814 85.4535C678.946 84.0424 676.871 82.9218 674.671 82.0917C672.97 81.4277 671.143 80.9297 669.691 79.8506C665.914 76.9868 665.831 71.3009 662.967 67.5241C662.386 66.7355 661.681 66.0715 660.934 65.4904C660.975 65.0754 660.975 64.6604 660.975 64.2453C661.058 60.9666 661.1 57.6048 659.896 54.5336C659.191 52.7074 658.029 51.0888 657.074 49.3872C657.032 49.3457 657.032 49.2627 656.991 49.2212C660.311 50.0512 664.005 49.5947 666.702 47.478C669.815 45.0294 671.019 40.2565 668.944 36.8947C668.114 35.5666 666.91 34.5705 665.955 33.3254C662.967 29.3411 662.469 25.2323 656.742 24.7343C653.422 24.4438 649.479 24.9833 647.653 28.013C642.548 21.165 633.749 17.4712 625.199 17.6787C616.193 17.8862 607.602 21.9951 600.795 27.8885C598.679 29.7562 596.645 31.8313 595.4 34.363C594.155 36.8947 593.781 39.717 593.532 42.4977C593.283 45.2369 592.827 49.3457 594.155 51.8774L593.906 53.2885C592.661 54.9901 594.279 57.3558 595.981 58.6009C606.896 66.86 623.498 64.3283 633.998 73.127C638.439 76.8208 641.22 82.1747 642.88 87.7362C643.668 90.3924 644.249 93.1731 643.959 95.9538C643.295 102.179 638.646 107.035 635.119 112.223C630.844 118.49 627.98 125.753 626.943 133.265C626.403 137.042 626.486 141.4 629.184 144.098C631.715 146.671 635.99 147.169 637.899 150.24C640.306 154.1 637.36 159.08 637.484 163.646C637.609 167.962 640.929 171.988 645.162 172.901C648.607 173.648 652.135 172.527 655.621 172.112C659.107 171.739 663.258 172.444 664.918 175.557C666.08 177.757 665.665 180.496 666.661 182.779C668.114 186.099 672.264 187.51 675.833 186.929C679.402 186.348 682.515 184.273 685.504 182.197C687.122 181.077 688.865 179.749 689.073 177.798C689.197 176.429 688.533 175.1 687.745 173.98C685.296 170.369 681.644 166.551 682.93 162.4C683.76 159.661 686.5 158.001 688.699 156.175C691.688 153.685 694.053 150.364 694.883 146.588C695.713 142.686 694.925 138.453 692.352 135.589Z" fill="#5E625E"/>
<defs>
<linearGradient id="paint0_linear_502_38" x1="0.927096" y1="460.77" x2="213.185" y2="479.628" gradientUnits="userSpaceOnUse">
<stop stop-color="#4D4D4D"/>
<stop offset="1"/>
</linearGradient>
<linearGradient id="paint1_linear_502_38" x1="0.927096" y1="460.77" x2="213.185" y2="479.628" gradientUnits="userSpaceOnUse">
<stop/>
<stop offset="1"/>
</linearGradient>
<linearGradient id="paint2_linear_502_38" x1="227.222" y1="460.144" x2="429.393" y2="474.107" gradientUnits="userSpaceOnUse">
<stop stop-color="#4D4D4D"/>
<stop offset="1"/>
</linearGradient>
<linearGradient id="paint3_linear_502_38" x1="227.222" y1="460.144" x2="429.393" y2="474.107" gradientUnits="userSpaceOnUse">
<stop/>
<stop offset="1"/>
</linearGradient>
<linearGradient id="paint4_linear_502_38" x1="355.953" y1="461.93" x2="499.684" y2="468.793" gradientUnits="userSpaceOnUse">
<stop stop-color="white"/>
<stop offset="1"/>
</linearGradient>
<linearGradient id="paint5_linear_502_38" x1="355.953" y1="461.93" x2="499.684" y2="468.793" gradientUnits="userSpaceOnUse">
<stop/>
<stop offset="1"/>
</linearGradient>
<linearGradient id="paint6_linear_502_38" x1="576.69" y1="465.921" x2="695.788" y2="467.308" gradientUnits="userSpaceOnUse">
<stop stop-color="white"/>
<stop offset="1"/>
</linearGradient>
<linearGradient id="paint7_linear_502_38" x1="576.69" y1="465.921" x2="695.788" y2="467.308" gradientUnits="userSpaceOnUse">
<stop/>
<stop offset="1"/>
</linearGradient>
</defs>
</svg>
