<svg width="543" height="588" viewBox="0 0 543 588" fill="none" xmlns="http://www.w3.org/2000/svg">
<path d="M294.807 501.526C308.034 501.296 321.308 501.111 334.489 499.867C341.08 499.268 347.717 498.392 354.031 496.503C359.008 495.028 364.216 492.539 366.521 487.884C366.843 487.239 367.12 486.501 366.982 485.764C366.89 485.027 366.429 484.428 365.876 483.921C363.203 481.293 359.054 481.201 355.321 481.247C318.773 481.754 282.225 482.445 245.769 485.395C239.224 485.948 231.804 487.008 228.024 492.401C219.775 504.153 248.165 501.572 253.281 501.711C267.154 501.987 280.98 501.757 294.807 501.526Z" fill="url(#paint0_linear_122_132)"/>
<path d="M294.807 501.526C308.034 501.296 321.308 501.111 334.489 499.867C341.08 499.268 347.717 498.392 354.031 496.503C359.008 495.028 364.216 492.539 366.521 487.884C366.843 487.239 367.12 486.501 366.982 485.764C366.89 485.027 366.429 484.428 365.876 483.921C363.203 481.293 359.054 481.201 355.321 481.247C318.773 481.754 282.225 482.445 245.769 485.395C239.224 485.948 231.804 487.008 228.024 492.401C219.775 504.153 248.165 501.572 253.281 501.711C267.154 501.987 280.98 501.757 294.807 501.526Z" fill="url(#paint1_linear_122_132)"/>
<path d="M201.709 328.142C211.572 376.627 239.64 419.95 249.457 468.482C250.102 471.662 250.701 474.934 252.452 477.607C254.25 480.28 257.568 482.262 260.656 481.433C266.279 479.912 266.233 472.077 265.449 466.316C263.145 449.125 265.127 431.657 267.155 414.42C270.289 387.55 273.423 360.68 276.557 333.765C278.907 331.322 283.147 331.875 285.728 334.087C288.309 336.254 289.554 339.572 290.568 342.798C295.13 357.131 297.02 372.11 298.956 386.997C302.781 416.816 306.56 446.682 307.021 476.732C309.741 476.916 312.46 477.1 315.179 477.239C326.333 447.465 334.72 416.77 342.602 386.029C346.611 370.451 350.483 354.827 353.018 338.927C356.336 318.048 357.212 296.848 357.903 275.739C358.041 271.453 358.087 266.89 355.645 263.341C353.479 260.207 349.745 258.594 346.15 257.212C315.317 245.367 282.179 240.988 249.272 238.407C240.008 237.67 230.652 237.117 221.527 238.776C214.337 240.067 206.502 242.924 201.11 248.086C195.026 253.939 197.008 263.203 196.962 271.269C196.869 290.303 197.884 309.43 201.709 328.142Z" fill="#666666"/>
<path d="M182.213 220.525C179.171 229.742 176.774 240.665 182.397 248.593C185.07 252.326 189.126 254.768 193.228 256.842C216.272 268.457 242.635 271.176 268.306 273.665C291.443 275.923 314.671 278.181 337.9 276.937C348.961 276.338 360.622 274.725 369.24 267.765C377.444 261.175 381.73 250.621 382.883 240.158C384.035 229.696 382.468 219.142 380.855 208.726C379.103 197.296 377.352 185.866 374.356 174.712C369.148 155.309 360.069 136.966 347.901 121.019C338.684 108.99 327.484 98.1132 313.75 91.6608C300.753 85.531 281.027 82.7196 267.523 89.3102C254.019 95.8548 241.621 114.705 232.587 126.319C210.603 154.572 193.412 186.557 182.213 220.525Z" fill="#FCEE9F"/>
<path d="M310.937 58.1081C310.799 60.5508 310.661 63.0396 309.969 65.4362C308.264 71.1051 303.102 76.2209 296.097 78.9401C289.091 81.6593 280.38 81.9819 273.191 79.5853C266.047 77.2348 260.793 72.6259 256.599 67.7866C247.842 57.6471 242.726 45.572 243.924 33.5889C244.109 31.7915 244.478 29.9479 245.998 28.5191C248.165 26.4912 251.99 26.0303 255.447 25.7538C266.83 24.7398 298.401 17.55 307.757 23.0346C317.021 28.473 311.398 50.5035 310.937 58.1081Z" fill="#F2D6C9"/>
<path d="M218.947 23.6801C220.606 30.7317 229.593 36.0779 239.225 37.3223C248.858 38.5206 258.767 36.2162 267.155 32.5291C276.096 28.5655 284.485 22.8044 294.901 22.4818C296.836 22.4357 298.818 22.574 300.477 23.2192C302.321 23.9566 303.657 25.2932 304.717 26.6297C310.663 34.0039 311.539 42.9452 312.276 51.4716C315.456 44.0513 317.991 36.4927 319.789 28.7959C321.77 20.4078 322.323 10.5909 314.027 4.73764C307.713 0.267041 297.989 -0.516471 289.232 0.267036C276.926 1.37316 265.081 5.15246 255.541 10.9596C251.762 13.2641 248.305 15.8912 244.157 17.9191C240.055 19.9009 235.078 21.2835 230.192 20.6383C224.846 19.9009 223.786 16.6285 220.053 14.7849C218.532 17.3659 218.301 20.8226 218.947 23.6801Z" fill="#D1B380"/>
<path d="M329.972 143.833C326.561 137.565 321.538 132.449 317.298 126.734C313.057 121.019 309.509 114.29 309.877 107.193C310.246 100.095 315.823 92.9053 322.921 92.9514C325.87 92.9514 328.636 94.1496 331.263 95.4862C339.789 99.7725 347.578 105.626 353.984 112.723C356.473 115.489 358.778 118.438 360.391 121.803C362.741 126.734 363.386 132.311 363.985 137.75C364.999 147.336 365.829 157.061 363.755 166.463C360.759 179.875 351.173 191.858 338.499 197.25C335.779 198.402 331.631 200.384 329.05 198.909C326.285 197.342 325.778 193.747 326.377 191.028C327.944 183.561 333.06 177.386 334.212 169.458C335.365 160.748 334.212 151.622 329.972 143.833Z" fill="#F2D6C9"/>
<path d="M315.179 196.283C314.626 196.651 314.073 197.066 313.658 197.573C312.644 198.864 312.598 200.615 312.598 202.274C312.598 204.901 312.875 207.989 315.133 209.326C316.147 209.925 317.391 210.017 318.59 210.063C319.834 210.109 321.078 210.201 322.323 210.248C323.659 210.34 325.088 210.386 326.194 209.648C327.346 208.911 327.853 207.528 328.314 206.238C329.42 203.058 330.526 199.924 331.632 196.744C331.817 196.191 332.001 195.591 331.771 195.084C331.633 194.762 331.31 194.531 331.034 194.347C328.407 192.319 327.162 191.305 323.798 192.042C320.986 192.642 317.207 194.255 315.179 196.283Z" fill="#F2D6C9"/>
<path d="M340.021 479.404C338.362 477.883 335.919 477.653 333.707 477.515C330.388 477.284 327.07 477.008 323.752 476.777C322.323 476.685 320.802 476.547 319.65 475.717C319.189 475.395 318.82 474.934 318.498 474.473C317.437 474.473 316.424 474.427 315.364 474.427C311.538 474.335 307.713 475.763 303.979 476.916C304.763 480.188 305.5 483.414 306.284 486.686C306.422 487.332 306.607 488.023 307.114 488.438C307.621 488.852 308.358 488.898 309.049 488.898C320.111 489.175 331.218 488.76 342.233 487.7C342.325 484.704 342.233 481.34 340.021 479.404Z" fill="black"/>
<path d="M263.698 476.454C263.882 480.833 264.021 485.442 261.993 489.359C260.564 492.125 258.168 494.199 255.817 496.273C254.573 497.333 253.374 498.393 252.13 499.499C251.807 499.775 251.439 500.098 251.024 500.236C250.563 500.375 250.056 500.375 249.595 500.329C247.475 500.236 245.401 500.421 243.281 500.282C241.207 500.098 239.041 499.499 237.566 497.978C236.091 496.457 235.63 493.876 236.921 492.217C237.75 491.157 239.133 490.65 240.331 490.051C243.972 488.391 247.106 485.672 249.227 482.308C250.563 480.188 251.807 477.975 254.25 477.1C255.172 476.777 263.698 475.809 263.698 476.454Z" fill="black"/>
<path d="M338.131 187.11C337.624 186.05 337.071 184.99 336.195 184.253C335.043 183.331 333.476 183.285 332.047 183.239C306.376 182.409 280.659 181.534 254.987 180.704C252.913 180.612 251.023 181.948 250.148 183.976C246 193.747 241.068 201.951 237.934 212.136C237.519 213.519 238.487 214.902 239.87 214.948C274.529 215.409 310.985 219.142 345.597 216.238C347.948 216.054 349.376 213.381 348.362 211.123C344.906 203.288 341.541 194.116 338.131 187.11Z" fill="#7F7F7F"/>
<path d="M337.439 184.852C336.932 183.792 336.425 182.732 335.503 181.995C334.351 181.073 332.83 181.027 331.447 180.981C306.237 180.151 281.026 179.275 255.862 178.446C253.834 178.354 251.944 179.69 251.115 181.718C247.013 191.489 242.174 199.693 239.132 209.878C238.717 211.261 239.685 212.644 241.021 212.69C275.035 213.151 310.799 216.884 344.767 213.98C347.071 213.796 348.454 211.123 347.486 208.864C344.121 201.029 340.803 191.858 337.439 184.852Z" fill="#666666"/>
<path d="M333.43 186.926C332.969 186.189 332.508 185.405 331.678 184.898C330.664 184.253 329.282 184.207 327.991 184.16C305.269 183.561 282.548 182.916 259.826 182.317C257.983 182.271 256.324 183.193 255.54 184.667C251.853 191.673 247.474 197.572 244.755 204.9C244.386 205.868 245.262 206.882 246.46 206.928C277.155 207.251 309.417 209.97 340.02 207.85C342.094 207.712 343.385 205.776 342.463 204.163C339.467 198.54 336.471 191.95 333.43 186.926Z" fill="#F0F0F0"/>
<path d="M303.518 188.954C303.38 189.139 303.426 189.369 303.472 189.599C304.394 194.9 305.316 200.292 307.344 205.27C313.428 205.27 319.511 205.27 325.595 205.316C327.531 205.316 329.467 205.316 331.31 204.947C329.282 199.693 327.208 194.439 325.18 189.185C318.221 189.369 311.261 189.231 304.348 188.77C304.025 188.724 303.703 188.724 303.518 188.954Z" fill="#E0C74E"/>
<path d="M295.868 188.401C284.669 189 273.561 188.815 262.362 188.401C261.486 188.354 261.486 189.691 262.362 189.783C273.515 190.613 284.715 190.475 295.868 189.922C296.836 189.875 296.882 188.354 295.868 188.401Z" fill="#CACACA"/>
<path d="M297.021 192.688C286.051 192.642 275.082 192.964 264.159 193.563C263.33 193.609 263.33 194.9 264.159 194.854C275.128 194.347 286.051 194.208 297.021 194.255C298.034 194.255 298.034 192.688 297.021 192.688Z" fill="#CACACA"/>
<path d="M297.02 198.079C285.498 197.572 273.93 197.48 262.408 197.526C261.532 197.526 261.532 198.863 262.408 198.863C273.976 199.047 285.498 199.416 297.02 199.692C298.034 199.692 298.034 198.125 297.02 198.079Z" fill="#CACACA"/>
<path d="M293.933 202.181C283.701 202.089 273.423 202.273 263.146 202.366C262.27 202.366 262.27 203.702 263.146 203.702C273.377 203.794 283.655 203.979 293.933 203.887C295.039 203.887 295.039 202.227 293.933 202.181Z" fill="#CACACA"/>
<path d="M251.529 196.512C253.419 196.696 255.355 196.88 257.244 196.512C258.811 196.235 260.332 195.59 261.623 194.668C263.651 193.24 265.172 190.935 265.31 188.446C265.402 185.957 263.835 183.376 261.438 182.685C260.332 182.363 259.18 182.455 258.028 182.685C252.958 183.561 248.349 186.465 243.233 186.833C241.344 186.971 239.224 186.833 237.887 188.124C237.15 188.861 236.781 189.875 236.597 190.935C236.412 192.041 236.366 193.286 236.919 194.253C237.979 196.143 241.067 195.544 242.911 195.682C245.768 195.959 248.626 196.235 251.529 196.512Z" fill="#F2D6C9"/>
<path d="M217.885 108.022C209.405 114.383 202.492 122.632 195.901 130.928C189.818 138.625 183.78 146.691 180.784 156.047C177.788 165.403 178.295 176.418 184.379 184.115C190.555 191.904 200.879 194.761 210.649 196.651C214.521 197.388 218.485 198.08 222.448 197.803C226.827 197.526 233.878 198.356 238.072 196.973C240.331 196.236 240.331 194.07 242.036 192.411C243.741 190.752 244.11 187.157 242.912 185.129C235.814 184.668 228.716 183.93 221.665 182.916C215.811 182.087 209.451 180.75 205.672 176.234C201.57 171.348 201.847 163.836 204.888 158.213C207.93 152.59 213.23 148.58 218.715 145.308C224.2 142.036 230.053 139.317 235.123 135.445C243.787 128.808 280.29 102.446 269.92 91.2921C261.624 82.5353 225.029 102.63 217.885 108.022Z" fill="#F2D6C9"/>
<path d="M365.231 125.951C365.646 123.324 363.848 120.881 362.189 118.807C358.548 114.291 354.907 109.728 351.22 105.211C349.468 103.045 347.717 100.833 345.551 99.0354C341.265 95.4405 335.734 93.7353 330.388 92.1682C324.258 90.3708 317.114 88.8499 311.952 92.583C308.404 95.164 306.791 99.7268 306.791 104.105C306.791 108.484 308.219 112.678 309.786 116.78C312.091 122.863 314.579 129.177 317.852 134.8C320.571 139.547 323.613 139.179 328.222 137.105C340.251 131.712 352.142 127.518 365.231 125.951Z" fill="#FCEE9F"/>
<path d="M224.245 120.559C228.209 126.873 233.094 132.542 237.98 138.165C238.348 138.626 238.809 139.086 239.408 139.086C239.869 139.086 240.284 138.81 240.606 138.533C244.432 135.584 247.013 131.39 250.331 127.887C256.922 120.974 266.416 116.918 271.624 108.944C274.574 104.382 275.864 98.7589 275.219 93.3665C274.989 91.4769 274.482 89.5411 273.283 88.1123C271.578 86.0384 268.767 85.2087 266.094 85.2087C262.268 85.2087 258.581 86.5454 255.032 87.9281C244.939 91.8456 234.984 96.1779 225.213 100.879C222.816 102.031 220.374 103.229 217.977 104.428C214.843 106.041 214.06 105.995 216.088 108.76C218.991 112.585 221.664 116.411 224.245 120.559Z" fill="#FCEE9F"/>
<path d="M506.677 581.767C516.336 581.767 526.196 581.666 535.402 578.698C536.107 576.535 534.799 574.07 532.887 572.762C530.975 571.454 528.661 571.051 526.347 570.749C518.6 569.743 510.752 569.492 502.904 569.24C472.468 568.335 441.981 567.429 411.495 567.228C407.672 567.177 391.724 568.234 396.252 575.981C399.27 581.163 413.407 579.352 418.337 579.603C437.102 580.509 455.866 581.113 474.681 581.465C485.346 581.666 496.012 581.767 506.677 581.767Z" fill="url(#paint2_linear_122_132)"/>
<path d="M506.677 581.767C516.336 581.767 526.196 581.666 535.402 578.698C536.107 576.535 534.799 574.07 532.887 572.762C530.975 571.454 528.661 571.051 526.347 570.749C518.6 569.743 510.752 569.492 502.904 569.24C472.468 568.335 441.981 567.429 411.495 567.228C407.672 567.177 391.724 568.234 396.252 575.981C399.27 581.163 413.407 579.352 418.337 579.603C437.102 580.509 455.866 581.113 474.681 581.465C485.346 581.666 496.012 581.767 506.677 581.767Z" fill="url(#paint3_linear_122_132)"/>
<path d="M531.475 273.633C531.475 273.633 533.186 246.669 484.337 248.58C483.381 248.631 482.476 248.63 481.57 248.681C481.218 248.882 480.916 249.033 480.564 249.234C479.86 251.045 479.256 252.856 478.803 254.718C478.652 255.221 478.552 256.026 478.401 256.78C478.049 259.698 478.149 258.39 478.401 256.78C478.451 256.177 478.552 255.422 478.652 254.466C478.501 255.673 478.25 256.881 478.099 258.038C476.59 268.804 476.942 279.67 475.986 290.436C475.181 299.642 473.32 308.848 471.308 317.954C473.219 317.854 475.382 317.904 476.59 318.357C479.055 319.262 480.212 542.627 475.986 556.512L495.405 556.714C495.455 556.764 533.085 327.362 531.475 273.633Z" fill="#6087A2"/>
<path d="M478.151 148.217C472.466 147.412 466.429 150.38 463.662 155.411C461.901 158.63 461.448 162.403 460.996 166.076C459.386 179.105 457.323 192.085 454.858 205.014C453.198 213.767 452.997 231.174 440.621 232.029C435.993 232.381 431.214 228.86 426.636 228.155C419.14 226.948 412.097 226.545 404.853 223.929C399.017 221.816 395.143 218.697 390.767 214.472C388.151 211.906 384.478 206.825 380.956 205.869C378.441 205.165 375.272 208.083 376.831 210.145C373.712 208.284 369.235 211.252 369.084 214.924C368.782 221.917 382.566 225.891 387.446 228.91C394.992 233.639 402.438 238.619 410.638 242.141C423.567 247.674 437.552 250.794 451.588 251.045C454.053 251.095 456.669 250.995 458.782 249.737C463.31 246.97 465.725 240.48 469.196 236.456C472.365 232.733 474.076 230.268 475.535 225.439C479.559 212.157 483.03 198.524 485.646 184.891C488.111 173.421 496.613 150.933 478.151 148.217Z" fill="#EADDD0"/>
<path d="M421.202 353.825C421.504 362.427 422.107 371.03 422.661 379.632C423.516 392.511 424.371 405.39 425.176 418.269C425.428 422.394 425.83 426.771 428.346 430.041C428.597 430.393 428.899 430.695 429.301 430.845C430.66 431.349 431.716 429.638 432.169 428.28C437.552 412.081 445.5 396.787 455.713 383.104C458.329 379.632 461.146 376.161 464.919 373.998C467.736 372.388 470.956 371.533 474.176 370.728C480.515 369.118 486.904 367.508 493.242 365.899C496.965 364.943 500.839 363.937 503.757 361.472C506.071 359.51 507.58 356.793 509.039 354.127C516.485 340.694 523.98 327.111 527.753 312.22C530.52 301.354 531.225 290.085 531.023 278.917C531.023 277.81 530.973 276.653 530.57 275.647C530.017 274.238 528.81 273.131 527.552 272.276C522.773 269.107 516.686 268.705 510.951 268.453C489.168 267.497 466.881 267.044 445.551 272.125C438.961 273.685 427.792 275.295 424.573 282.288C420.649 290.84 421.856 304.121 421.403 313.378C420.749 326.81 420.649 340.342 421.202 353.825Z" fill="#6087A2"/>
<path d="M465.725 338.883C453.55 337.223 441.326 335.613 429.151 333.953C428.548 332.393 431.566 334.003 431.365 335.613C424.976 386.575 427.441 438.341 432.522 489.604C434.735 511.689 434.886 533.875 432.572 555.91C437.603 556.463 446.256 557.217 451.236 557.771C460.493 489.101 466.077 420.23 475.333 351.56C475.786 348.089 476.088 344.065 473.422 341.549C471.46 339.688 468.491 339.235 465.725 338.883Z" fill="#6087A2"/>
<path d="M449.878 114.008C457.172 113.756 464.618 108.826 472.466 107.216C470.403 100.877 472.868 94.0355 473.522 87.3949C474.428 78.3899 471.912 69.4351 469.296 60.8325C467.183 53.8901 464.819 46.6962 459.839 41.3636C458.832 40.3071 457.675 39.3009 456.317 38.9488C455.11 38.6469 453.852 38.8482 452.645 38.9991C444.042 40.3071 420.146 41.3133 417.882 50.9723C414.763 64.2032 423.869 81.7604 429 93.4821C431.415 99.0159 433.88 104.65 438.106 108.926C441.929 112.901 445.903 114.159 449.878 114.008Z" fill="#EADDD0"/>
<path d="M533.288 303.366L533.438 303.215C533.539 303.114 533.589 303.013 533.69 302.963C533.891 302.661 534.092 302.41 534.293 302.108C536.859 298.184 539.073 294.059 541.337 289.984C545.562 242.393 540.179 194.349 525.238 147.563C520.56 132.873 515.931 116.674 498.374 106.613C497.469 106.11 496.513 105.607 495.406 105.405C493.947 105.154 492.438 105.556 491.029 105.909C481.571 108.323 472.113 110.738 462.605 113.203C460.744 113.706 458.832 114.159 456.92 114.612C454.908 115.065 452.896 115.467 450.833 115.769C447.312 116.272 433.477 119.592 432.974 122.913C431.767 131.414 430.66 139.916 429.704 148.469C427.289 169.548 425.478 190.576 425.529 211.705C425.579 232.784 423.667 253.813 420.196 274.69C419.945 276.3 418.687 284.802 417.178 293.505C417.278 293.656 417.329 293.807 417.429 293.958C418.637 296.272 419.944 298.486 421.403 300.649C421.554 300.85 421.806 301.202 422.057 301.605C422.208 301.756 422.309 301.907 422.41 302.007C424.019 303.869 425.83 305.629 427.692 307.289C427.843 307.44 428.094 307.642 428.396 307.943C425.831 305.529 428.547 307.994 429.302 308.497C431.264 309.805 433.276 311.012 435.339 312.069C435.842 312.32 437.955 313.226 438.156 313.326C438.357 313.427 438.609 313.477 438.81 313.578C468.491 312.32 498.123 310.258 527.552 307.289C529.363 305.831 531.326 304.372 533.288 303.366Z" fill="#E8E8E8"/>
<path d="M433.88 553.997C433.578 553.997 433.276 553.997 432.974 554.047C432.572 554.148 432.32 554.4 432.068 554.601C431.012 555.658 430.207 556.814 429.754 558.072C429.352 559.229 429.251 560.487 428.396 561.493C427.44 562.65 425.679 563.354 423.919 563.908C419.441 565.367 414.612 566.373 409.732 566.826C408.625 566.926 407.519 567.027 406.512 567.329C403.695 568.285 402.991 570.75 402.639 572.913C402.538 573.516 402.488 574.271 403.242 574.623C403.645 574.825 404.148 574.824 404.651 574.824C418.737 574.774 424.724 574.774 438.759 574.774C442.18 574.774 445.752 574.674 449.072 574.07C449.525 573.969 449.978 573.919 450.33 573.667C450.682 573.416 450.833 573.064 450.984 572.712C452.845 567.882 453.047 562.6 452.644 557.619C452.493 556.06 452.242 554.802 449.777 554.45C446.255 553.947 450.129 554.349 446.557 554.249C442.381 554.199 438.106 554.098 433.88 553.997Z" fill="#97A8B2"/>
<path d="M494.702 64.3042C494.753 59.9778 492.237 56.0537 490.124 52.2806C486.603 45.9922 483.786 39.2007 479.459 33.4153C475.133 27.63 468.744 22.8005 461.499 22.5992C458.481 22.4986 455.513 23.203 452.595 23.9073C440.119 26.9257 427.542 29.9944 416.172 35.9307C414.764 36.6853 413.305 37.4903 412.399 38.8486C411.594 40.0057 411.343 41.4645 411.091 42.8732C410.739 44.8351 410.387 46.8474 410.035 48.8094C409.834 50.0671 409.582 51.3249 409.833 52.5323C410.588 56.3053 415.015 57.9653 418.889 58.2169C422.712 58.4181 426.485 57.9151 430.258 57.3617C433.88 56.8587 442.433 53.8403 445.351 57.1103C446.809 58.7201 446.357 61.4367 447.363 63.3483C448.57 65.7128 450.834 67.1213 452.343 69.2342C453.903 71.1962 455.01 73.913 453.853 76.1265C455.965 74.8688 458.581 74.4662 460.996 75.0699C461.851 75.2712 462.707 75.6234 463.26 76.2774C464.316 77.5854 463.864 79.5977 462.707 80.805C461.55 82.0124 459.889 82.5657 458.28 83.0688C465.121 89.6591 467.637 100.375 464.467 109.38C469.699 108.826 474.076 105.204 477.698 101.381C480.968 97.9096 483.987 94.1365 486.049 89.8603C487.005 87.848 487.76 85.7854 488.514 83.7228C489.973 79.5976 491.483 75.4221 492.942 71.2969C493.847 68.9827 494.652 66.6686 494.702 64.3042Z" fill="#333333"/>
<path d="M477.598 554.45C477.296 554.45 476.994 554.45 476.692 554.501C476.29 554.601 476.038 554.853 475.787 555.054C474.73 556.11 473.925 557.267 473.473 558.525C473.07 559.682 472.97 560.94 472.114 561.946C471.158 563.103 469.398 563.807 467.637 564.361C463.16 565.82 458.33 566.826 453.45 567.279C452.343 567.379 451.237 567.48 450.231 567.782C447.413 568.738 446.709 571.203 446.357 573.366C446.256 573.97 446.206 574.724 446.961 575.076C447.363 575.277 447.866 575.278 448.369 575.278C462.455 575.227 468.442 575.227 482.478 575.227C485.899 575.227 489.47 575.127 492.791 574.523C493.243 574.422 493.696 574.372 494.048 574.12C494.4 573.869 494.551 573.517 494.702 573.164C496.564 568.335 496.765 563.053 496.363 558.072C496.212 556.513 495.96 555.255 493.495 554.903C489.973 554.4 493.847 554.802 490.275 554.702C486.049 554.651 481.824 554.551 477.598 554.45Z" fill="#97A8B2"/>
<path d="M379.65 219C378.191 221.918 376.531 224.786 374.72 227.502C374.468 227.905 374.166 228.307 373.714 228.408C373.261 228.559 372.758 228.307 372.355 228.106C367.475 225.691 362.646 223.276 357.766 220.912C358.923 209.442 358.269 195.557 361.59 184.64C362.042 183.081 385.989 187.256 387.598 191.633C389.158 195.959 384.731 206.373 383.272 210.549C382.266 213.416 381.058 216.233 379.65 219Z" fill="#C7B299"/>
<path d="M360.031 185.848C360.735 185.998 361.439 186.049 362.144 186.099C363.653 186.25 365.112 186.552 366.571 186.854C373.765 188.514 380.757 190.929 387.649 193.545C388.102 193.695 388.555 193.897 389.058 193.846C389.813 193.746 390.366 193.041 390.567 192.337C390.768 191.582 390.668 190.828 390.567 190.073C390.567 189.922 390.517 189.771 390.416 189.671C390.316 189.57 390.215 189.52 390.064 189.47C389.712 189.319 389.36 189.168 389.008 189.067C387.398 188.463 385.738 187.96 384.078 187.508C376.884 185.495 369.639 183.634 362.395 181.924C362.043 181.823 361.59 181.773 361.288 181.974C360.735 182.376 360.433 183.382 360.282 183.986C360.031 184.489 359.226 185.697 360.031 185.848Z" fill="#534741"/>
<path d="M359.678 206.372L381.209 215.73L385.536 204.36L359.678 193.846V206.372Z" fill="#5B8C87"/>
<path d="M440.472 77.4342C440.372 76.9814 439.818 76.5287 439.265 76.579C433.882 77.1324 428.6 78.3397 423.418 79.6477C421.607 80.1005 422.412 82.7669 424.173 82.2638C428.851 81.0564 433.63 80.1509 438.309 79.0944C438.913 81.5092 439.416 83.9742 439.718 86.4896C439.868 87.5964 439.919 88.7032 439.919 89.8099C439.969 91.8222 436.951 91.9731 435.643 92.2246C434.033 92.5264 432.423 92.627 430.813 92.6773C428.449 92.778 428.298 91.7215 427.392 90.162C426.034 87.7975 424.977 85.3325 424.022 82.8171C423.72 82.0122 422.462 82.3644 422.663 83.1693C423.72 86.7914 425.078 90.4639 427.09 93.7339C428.549 96.0984 433.982 94.6394 436.196 94.3376C438.661 93.9854 441.83 93.4319 442.132 90.6147C442.686 86.3386 441.579 81.6097 440.472 77.4342Z" fill="#333333"/>
<path d="M453.351 72.7045C448.722 74.4653 444.295 77.1316 439.868 79.3452C439.013 79.7476 439.617 81.1562 440.522 80.8543C445.201 79.2948 450.231 77.9869 454.709 75.9243C456.52 75.1194 455.212 72.0002 453.351 72.7045Z" fill="#333333"/>
<path d="M493.395 148.569C491.584 141.626 484.038 127.138 476.089 137.551C473.675 140.721 473.071 144.947 472.618 148.921C468.745 180.967 464.821 212.962 460.947 245.008C458.935 261.71 456.721 278.966 448.068 293.354C446.66 295.668 445.1 297.932 444.446 300.548C443.742 303.164 444.144 306.232 446.207 307.993C443.39 311.515 445.704 319.162 450.886 318.759C451.992 318.658 452.998 318.205 453.904 317.551C459.086 313.98 457.778 307.339 458.985 301.805C460.595 294.259 462.909 286.914 465.223 279.62C474.077 251.397 485.195 223.879 491.132 195.053C494.251 179.659 497.369 163.711 493.395 148.569Z" fill="#EADDD0"/>
<path d="M473.272 131.264C471.26 131.717 469.197 132.22 467.688 133.578C465.726 135.339 465.072 138.106 464.519 140.671C458.482 169.649 453.904 198.927 450.785 228.408C460.746 230.923 470.757 233.438 480.718 235.954C493.395 208.385 499.08 177.647 497.068 147.413C496.715 142.03 495.81 136.043 491.634 132.622C486.604 128.648 479.46 129.855 473.272 131.264Z" fill="#6087A2"/>
<path d="M107.657 586.529C117.769 586.227 127.881 585.875 137.943 585.12C142.822 584.768 147.853 584.265 152.28 582.152C154.695 580.995 157.16 578.429 156.053 576.015C155.148 574.002 152.431 573.701 150.167 573.701C113.694 573.65 77.171 573.6 40.7484 576.015C34.1581 576.467 26.6623 577.474 22.8893 582.907C18.261 589.648 32.0957 587.736 34.9632 587.787C42.9621 587.887 50.961 587.887 58.9096 587.787C75.2093 587.585 91.408 587.082 107.657 586.529Z" fill="url(#paint4_linear_122_132)"/>
<path d="M107.657 586.529C117.769 586.227 127.881 585.875 137.943 585.12C142.822 584.768 147.853 584.265 152.28 582.152C154.695 580.995 157.16 578.429 156.053 576.015C155.148 574.002 152.431 573.701 150.167 573.701C113.694 573.65 77.171 573.6 40.7484 576.015C34.1581 576.467 26.6623 577.474 22.8893 582.907C18.261 589.648 32.0957 587.736 34.9632 587.787C42.9621 587.887 50.961 587.887 58.9096 587.787C75.2093 587.585 91.408 587.082 107.657 586.529Z" fill="url(#paint5_linear_122_132)"/>
<path d="M181.51 223.962C182.465 224.817 183.421 225.622 184.629 225.974C186.289 226.427 188.049 225.873 189.659 225.32C190.766 224.968 191.822 224.565 192.929 224.213C193.332 224.062 193.784 223.911 194.036 223.509C194.288 223.106 194.237 222.654 194.187 222.151C193.13 211.989 191.219 201.927 188.402 192.117C183.924 194.18 179.497 196.242 175.02 198.305C172.605 199.412 164.505 201.625 164.354 204.543C164.204 207.511 169.939 212.34 171.8 214.353C174.869 217.723 178.089 220.943 181.51 223.962Z" fill="white"/>
<path d="M183.573 190.256C184.881 189.702 186.29 189.149 187.749 189.35C189.158 189.551 190.566 190.809 190.365 192.218C190.214 193.224 184.881 195.638 183.926 196.192C181.611 197.55 179.247 198.808 176.832 200.015C174.417 201.223 171.952 202.329 169.487 203.386C168.129 203.99 165.161 205.851 163.551 205.297C157.665 203.235 167.928 197.601 169.688 196.594C174.166 194.18 178.844 192.218 183.573 190.256Z" fill="#333333"/>
<path d="M131.654 569.172C129.491 569.323 127.277 569.474 125.164 568.921C123.052 568.367 121.039 566.908 120.385 564.846C119.832 563.085 120.083 560.771 118.574 559.765C118.222 559.513 117.82 559.412 117.367 559.362C117.166 522.487 118.071 501.207 117.819 463.577C119.681 451.05 118.574 439.429 118.272 427.305C117.367 389.021 116.511 350.737 115.606 312.453C115.505 307.372 115.304 302.089 112.789 297.361C108.714 289.714 99.6585 285.387 91.1565 282.067C65.9022 272.207 37.3274 258.121 30.385 289.814C28.5236 298.216 27.0145 306.668 25.7568 315.22C24.8513 321.307 24.1469 327.646 26.3605 333.683C30.1335 343.945 37.1264 369.149 45.9805 376.595C69.0716 396.014 79.133 417.948 86.7295 443.705C84.365 452.308 87.1318 464.482 88.1883 471.123C93.1184 502.967 103.281 532.599 108.261 564.443C106.148 568.367 105.243 572.945 105.846 577.372C105.947 578.278 106.148 579.183 106.752 579.837C107.607 580.793 109.016 580.994 110.273 581.095C113.845 581.346 117.417 581.447 120.989 581.397C123.756 581.346 126.724 581.095 128.837 579.284C131.604 576.97 131.755 572.845 131.654 569.172Z" fill="#998675"/>
<path d="M101.571 351.392C94.4775 335.746 68.5188 325.232 44.0191 343.091C29.3796 353.756 40.4976 365.629 43.7173 376.194C47.6412 389.022 50.2571 402.253 51.4645 415.685C53.829 441.593 51.1628 468.458 43.4154 495.372C38.2841 513.282 38.1835 532.901 34.6116 550.76C32.6496 560.772 26.4114 574.053 27.8703 584.014C33.4041 584.064 38.9381 584.114 44.4216 584.165C49.3015 584.215 54.4831 584.165 58.558 581.498C62.6329 578.832 64.6451 572.493 61.2242 569.022C57.8536 570.129 54.2817 571.236 50.8105 570.431C35.5673 566.809 55.4891 532.348 58.407 524.751C70.8329 492.353 83.2588 459.955 92.2638 427.557C98.9044 403.863 111.331 372.773 101.571 351.392Z" fill="#998675"/>
<path d="M106.251 178.686C112.288 193.526 118.324 208.317 124.361 223.157C126.021 227.232 127.682 231.559 126.877 235.835C125.468 243.431 117.167 247.506 109.672 249.217C94.8308 228.138 79.1852 207.612 62.8353 187.691C53.5284 176.371 39.0399 150.212 60.4206 142.313C84.6688 133.409 99.0567 160.977 106.251 178.686Z" fill="#ACB18F"/>
<path d="M160.632 156.147C162.594 153.229 165.411 154.537 167.876 157.053C160.984 182.005 154.847 207.159 149.464 232.464C147.804 240.312 145.691 248.964 139 253.492C136.182 255.404 132.761 256.36 129.391 256.913C123.304 257.969 115.959 257.416 112.538 252.285C107.658 244.94 113.695 237.796 118.525 232.665C124.209 226.678 126.624 222.804 130.146 214.655C138.245 195.839 149.212 173.252 160.632 156.147Z" fill="#1B9D28"/>
<path d="M172.154 154.99C172.707 154.286 173.009 153.431 173.361 152.576C174.217 150.412 175.072 148.199 175.927 146.036C176.329 145.029 176.732 144.023 176.782 142.967C176.832 141.91 176.531 140.753 175.726 140.049C174.971 139.395 173.915 139.244 172.908 139.445C171.902 139.647 171.097 140.2 170.292 140.804C168.532 142.162 167.073 143.923 166.067 145.935C165.262 147.545 164.759 149.306 163.501 150.563C162.948 151.117 162.293 151.569 161.79 152.223C161.036 153.179 160.885 154.538 161.338 155.644C162.998 159.317 170.242 157.506 172.154 154.99Z" fill="#F2D6C9"/>
<path d="M132.862 356.624C130.347 302.795 124.762 249.117 117.468 195.64C114.802 176.02 111.582 152.677 91.0565 143.521C72.0402 135.019 48.5971 132.856 36.2215 151.973C29.279 162.688 27.7193 175.668 26.2604 188.244C17.5069 265.165 8.75351 342.085 0 419.005C9.60873 419.558 124.612 436.612 125.115 429.418C125.115 429.318 125.115 429.217 125.115 429.167C125.869 429.117 126.574 428.966 127.228 428.664C129.793 427.507 130.548 424.438 131.001 421.772C134.371 400.24 133.868 378.356 132.862 356.624Z" fill="#69BF72"/>
<path d="M168.279 215.561C168.531 215.007 168.732 214.404 169.084 213.901C169.839 212.844 171.147 212.442 172.455 212.291C173.712 212.14 175.02 212.24 176.278 212.039C180.202 211.335 183.422 207.461 187.346 208.065C188.553 208.266 189.66 208.87 190.666 209.574C191.974 210.53 193.181 211.788 193.533 213.347C194.037 215.812 192.276 218.177 190.666 220.088C189.76 221.145 188.805 222.251 187.597 222.905C186.591 223.459 185.434 223.66 184.277 223.912C181.51 224.566 178.743 225.572 176.529 227.484C174.718 229.043 173.209 231.206 170.945 231.76C166.82 232.766 162.947 228.238 162.494 224.515C161.94 220.692 166.871 218.73 168.279 215.561Z" fill="#F2D6C9"/>
<path d="M171.046 228.792C169.235 225.169 167.424 221.547 165.663 217.925C159.978 218.881 155.702 223.409 151.627 227.434C145.993 233.018 139.906 238.149 133.416 242.777C129.593 245.494 125.216 248.11 120.587 247.405C114.953 246.55 111.331 241.067 108.413 236.137C97.5466 217.573 86.6803 198.959 75.8139 180.396C67.2113 165.706 57.6024 171.089 51.4145 184.27C45.8304 196.293 53.0246 209.826 58.5584 220.692C65.7021 234.728 73.6002 248.361 82.2531 261.592C87.3341 269.34 93.4214 277.489 102.477 279.552C106.803 280.558 111.432 280.005 115.708 278.747C129.542 274.823 140.509 264.51 150.722 254.348C157.312 247.758 163.852 241.016 170.241 234.225C170.945 233.47 171.7 232.666 171.851 231.609C171.951 230.704 171.499 229.697 171.046 228.792Z" fill="#1B9D28"/>
<path d="M109.42 69.4675C107.156 62.7263 103.585 54.4256 96.2901 52.6648C88.3918 50.8035 77.2236 55.9852 71.4886 61.0159C64.3952 67.2037 59.968 75.9573 57.5029 85.0127C54.7863 94.8729 54.3336 105.84 58.7606 115.096C63.1877 124.353 73.2996 131.296 83.4114 129.786C90.2029 128.78 95.9883 124.303 100.415 119.071C111.785 105.639 115.004 86.069 109.42 69.4675Z" fill="#F2D6C9"/>
<path d="M75.462 94.7725C73.1981 90.7982 66.3562 90.9996 64.3439 95.0745C62.8347 98.093 68.2679 110.368 69.0728 114.141C71.1857 124.152 60.42 192.47 63.1869 202.38C47.0382 202.733 30.7385 200.972 15.3444 196.042C13.7849 195.538 12.1248 194.935 11.0181 193.677C9.60946 192.017 9.55905 189.602 9.65967 187.439C10.867 155.041 40.7496 44.7669 80.9453 45.7227C85.8754 45.8233 90.7554 46.9301 95.585 48.0872C98.7543 48.8418 101.924 49.6971 104.791 51.3069C110.627 54.6775 114.249 61.0666 115.708 67.6569C117.217 74.2472 116.815 81.089 116.462 87.7799C116.362 89.8425 92.2647 87.7295 89.9505 87.3773C87.3346 86.9749 82.4547 84.9123 79.8387 86.0191C76.8202 87.2768 76.4681 92.0559 75.462 94.7725Z" fill="#534741"/>
<path opacity="0.19" d="M40.3457 306.768C33.4033 305.41 27.0643 302.039 20.8765 298.668C21.8826 295.65 22.8889 292.632 23.8447 289.613C52.2182 299.826 84.4653 298.92 112.235 287.148C112.688 291.927 113.09 296.706 113.543 301.486C105.997 303.096 98.3 303.699 90.6532 304.353C80.1893 305.208 69.7754 306.064 59.3115 306.969C53.023 307.472 46.5839 307.975 40.3457 306.768Z" fill="white"/>
<defs>
<linearGradient id="paint0_linear_122_132" x1="226.618" y1="491.562" x2="367.073" y2="491.562" gradientUnits="userSpaceOnUse">
<stop stop-color="#4D4D4D"/>
<stop offset="1"/>
</linearGradient>
<linearGradient id="paint1_linear_122_132" x1="226.618" y1="491.562" x2="367.073" y2="491.562" gradientUnits="userSpaceOnUse">
<stop/>
<stop offset="1"/>
</linearGradient>
<linearGradient id="paint2_linear_122_132" x1="395.531" y1="574.507" x2="535.618" y2="574.507" gradientUnits="userSpaceOnUse">
<stop stop-color="#4D4D4D"/>
<stop offset="1"/>
</linearGradient>
<linearGradient id="paint3_linear_122_132" x1="395.531" y1="574.507" x2="535.618" y2="574.507" gradientUnits="userSpaceOnUse">
<stop/>
<stop offset="1"/>
</linearGradient>
<linearGradient id="paint4_linear_122_132" x1="21.9832" y1="580.864" x2="156.307" y2="580.864" gradientUnits="userSpaceOnUse">
<stop stop-color="#4D4D4D"/>
<stop offset="1"/>
</linearGradient>
<linearGradient id="paint5_linear_122_132" x1="21.9832" y1="580.864" x2="156.307" y2="580.864" gradientUnits="userSpaceOnUse">
<stop/>
<stop offset="1"/>
</linearGradient>
</defs>
</svg>
