<svg width="387" height="698" viewBox="0 0 387 698" fill="none" xmlns="http://www.w3.org/2000/svg">
<path d="M369.658 227.818H298.956V340.004H369.658V227.818Z" fill="#B2B2B2"/>
<path d="M299.232 227.818H228.529V340.004H299.232V227.818Z" fill="#D1D1D1"/>
<path d="M262.19 91.7734L259.176 152.077L245.003 196.297H270.519L283.771 158.197L287.913 114.896L262.19 91.7734Z" fill="#F7EBE7"/>
<path d="M261.478 302.547L266.608 326.452L249.376 328.5L244.475 304.963L261.478 302.547Z" fill="#FCC9A7"/>
<path d="M267.643 324.289C267.206 323.001 265.825 322.541 264.882 323.369C263.041 325.003 259.728 327.004 254.828 326.521C249.743 326.015 247.833 323.024 247.097 320.861C246.706 319.734 245.625 319.159 244.658 319.642L213.805 335.149C211.941 336.092 210.469 337.841 209.733 340.027C209.042 342.074 210.423 344.283 212.355 344.237L265.664 342.764C267.758 342.718 269.369 340.648 269.184 338.255L268.31 326.521C268.287 326.337 268.264 326.13 268.195 325.946L267.643 324.289Z" fill="#1F252A"/>
<path d="M261.178 186.956H221.168C221.168 186.956 196.803 185.599 195.353 205.592C193.904 225.586 231.084 282.783 236.905 313.338L270.358 310.577L246.269 227.496L306.181 227.841C310.622 227.864 315.039 227.22 319.227 225.77C330.892 221.721 348.7 215.923 338.99 183.804L261.178 186.956Z" fill="#092330"/>
<path d="M292.054 302.639L300.199 331.214L282.966 333.262L275.051 305.054L292.054 302.639Z" fill="#FCC9A7"/>
<path d="M301.234 329.052C300.797 327.763 299.417 327.303 298.473 328.131C296.633 329.765 293.32 331.766 288.419 331.283C283.334 330.777 281.425 327.786 280.688 325.623C280.297 324.496 279.216 323.921 278.25 324.404L247.396 339.911C245.533 340.854 244.06 342.603 243.324 344.789C242.634 346.836 244.014 349.045 245.947 348.999L300.176 347.527C302.27 347.481 303.88 345.41 303.696 343.017L301.878 331.283C301.855 331.099 301.833 330.892 301.763 330.708L301.234 329.052Z" fill="#1F252A"/>
<path d="M308.987 68.0757C309.884 68.95 350.033 79.1884 350.033 79.1884L341.451 101.989L297.552 98.6759L308.987 68.0757Z" fill="#F7EBE7"/>
<path d="M292.423 73.5747C292.423 73.5747 266.263 83.1229 262.191 91.7738C263.594 103.991 267.897 115.748 274.983 125.802C283.68 138.134 294.425 159.324 292.446 186.957H368.072C368.072 186.957 364 109.214 341.614 79.3726L292.423 73.5747Z" fill="#F7EBE7"/>
<path d="M301.003 85.9067C308.435 84.3882 313.22 77.1408 311.702 69.7093L307.261 47.967L280.365 53.4659L284.806 75.2082C286.324 82.6397 293.572 87.4253 301.003 85.9067Z" fill="#FCC9A7"/>
<path d="M309.101 55.5596C309.101 55.5596 306.271 73.1835 292.559 74.2418C280.549 75.1621 281.699 57.7913 281.699 57.7913L309.101 55.5596Z" fill="#F4BE9A"/>
<path d="M293.64 64.5785L296.01 64.0263C307.905 61.2654 315.314 49.3934 312.553 37.5214L309.424 23.9699C306.663 12.0749 294.791 4.66644 282.919 7.42737L280.549 7.97956C268.654 10.7405 261.246 22.6124 264.006 34.4844L267.136 48.036C269.897 59.931 281.768 67.3394 293.64 64.5785Z" fill="#FCC9A7"/>
<path d="M305.098 43.1584C304.546 44.1017 304.017 45.5282 303.832 47.6909C303.625 50.4288 302.245 53.0287 299.944 54.5472C293.341 58.9187 288.302 47.852 278.547 49.8076C278.547 49.8076 274.728 50.3828 273.969 54.6392C273.209 58.8726 267.894 51.4642 266.721 46.4025C265.548 41.3408 264.95 71.4579 288.97 68.904C288.97 68.904 301.095 68.5129 309.262 56.1577C310.16 54.8003 310.689 53.2127 310.735 51.5792C310.804 49.1634 310.459 45.5052 308.158 42.8823C307.353 41.916 305.742 42.054 305.098 43.1584Z" fill="#1C2226"/>
<path d="M305.122 36.325C305.122 36.325 294.745 32.8969 296.494 17.7348C296.494 17.7348 270.725 42.123 251.629 24.223C251.629 24.223 260.165 21.9452 263.685 16.1013C270.104 5.44869 288.556 -9.23022 303.327 7.74946C303.327 7.74946 321.296 4.96553 316.143 32.6438L305.122 36.325Z" fill="#1C2226"/>
<path d="M305.121 36.3251C306.111 40.5585 310.344 43.2044 314.578 42.2381C318.834 41.2488 321.457 37.0153 320.491 32.7819C319.501 28.5485 315.268 25.9026 311.034 26.8689C306.778 27.8583 304.132 32.0917 305.121 36.3251Z" fill="#FCC9A7"/>
<path d="M292.008 85.0554L303.12 85.2625L295.344 101.368L286.946 85.9297L292.008 85.0554Z" fill="#0C2C40"/>
<path d="M312.646 68.7891L298.335 85.4927L307.654 96.1913L324.794 72.6314C324.794 72.6314 320.4 65.568 312.646 68.7891Z" fill="#FFF7F3"/>
<path d="M292.008 85.0551L283.771 94.3502L277.973 79.8553C277.973 79.8553 279.492 73.3441 284.231 74.5866L292.008 85.0551Z" fill="#FFF7F3"/>
<path d="M295.044 96.1682C295.044 96.1682 284.3 124.192 286.968 163.949L297.552 173.612L309.907 161.717L296.586 94.3506L295.044 96.1682Z" fill="#0C2C40"/>
<path d="M315.132 162.707L292.125 170.276L290.606 183.782L321.114 174.671L315.132 162.707Z" fill="#FCC9A7"/>
<path d="M295.552 179.203C295.552 187.095 289.156 193.514 281.241 193.514C273.35 193.514 266.931 187.118 266.931 179.203C266.931 171.311 273.327 164.892 281.241 164.892C289.133 164.892 295.552 171.288 295.552 179.203Z" fill="#FCC9A7"/>
<path d="M292.422 186.956H252.434C252.434 186.956 228.069 185.599 226.62 205.593C225.17 225.586 265.088 286.465 270.909 316.996L304.363 314.235L277.536 227.473L337.448 227.818C341.888 227.841 346.306 227.197 350.493 225.747C362.158 221.698 379.966 215.9 370.257 183.781L292.422 186.956Z" fill="#0C2C40"/>
<path d="M171.793 116.254H240.931C243.209 116.254 245.164 117.841 245.648 120.073L258.67 181.136C259.314 184.127 257.013 186.957 253.953 186.957H183.665C181.364 186.957 179.385 185.323 178.948 183.068L167.076 122.006C166.478 119.015 168.756 116.254 171.793 116.254Z" fill="#B2B2B2"/>
<path d="M167.812 116.254H236.928C239.205 116.254 241.161 117.841 241.644 120.073L254.666 181.136C255.311 184.127 253.033 186.957 249.95 186.957H179.684C177.384 186.957 175.405 185.323 174.968 183.068L163.096 122.006C162.498 119.015 164.775 116.254 167.812 116.254Z" fill="#D1D1D1"/>
<path d="M256.784 181.734H304.018C305.468 181.734 306.618 182.907 306.618 184.334C306.618 185.783 305.445 186.934 304.018 186.934H255.863L256.784 181.734Z" fill="#B2B2B2"/>
<path d="M210.607 150.006C210.607 154.17 207.248 157.529 203.084 157.529C198.919 157.529 195.56 154.147 195.56 150.006C195.56 145.842 198.942 142.482 203.084 142.482C207.248 142.482 210.607 145.842 210.607 150.006Z" fill="white"/>
<path d="M333.537 100.907L358.8 141.7L298.335 163.281L306.618 181.181C306.618 181.181 358.317 175.383 383.303 156.126C385.604 154.354 386.754 151.478 386.363 148.602C385.189 139.399 380.174 117.059 358.8 85.3081C354.451 78.843 345.8 76.8873 339.059 80.7986C332.042 84.848 329.58 93.821 333.537 100.907Z" fill="#F7EBE7"/>
<path d="M314.417 157.53L358.799 141.701L336.596 105.832" stroke="#EADDD8" stroke-width="0.7599" stroke-miterlimit="10" stroke-linecap="round" stroke-linejoin="round"/>
<path d="M284.369 144.024L273.44 115.172" stroke="#EADDD8" stroke-width="0.7599" stroke-miterlimit="10" stroke-linecap="round" stroke-linejoin="round"/>
<path d="M315.13 179.962C315.13 179.962 349.09 175.706 366.207 165.904" stroke="#EADDD8" stroke-width="0.7599" stroke-miterlimit="10" stroke-linecap="round" stroke-linejoin="round"/>
<path d="M2.6072 685.5H94.0254L94.0254 532.772H2.6072L2.6072 685.5Z" fill="#B2B2B2"/>
<path d="M93.6624 685.5H185.081L185.081 532.772H93.6624L93.6624 685.5Z" fill="#D1D1D1"/>
<path d="M101.875 388.35L112.885 441.07L78.4964 445.497C78.4964 445.497 75.5151 390.711 78.4964 390.416C81.4778 390.151 101.875 388.35 101.875 388.35Z" fill="#A8754B"/>
<path d="M69.6997 335.395C69.6997 335.395 104.059 340.236 110.228 392.512C110.228 392.512 99.2771 404.29 85.3149 400.66L69.6997 335.395Z" fill="#FFD686"/>
<path d="M54.7928 333.593C54.7928 333.593 21.319 330.287 9.54123 353.872C-2.26609 377.458 32.1522 402.017 20.3449 456.065L94.5539 452.139V404.467C94.5539 404.467 108.073 384.748 88.916 363.613C88.916 363.613 87.7647 331.498 54.7928 333.593Z" fill="#FFD686"/>
<path d="M165.191 463.71C165.191 463.71 189.249 454.796 195.713 478.145C202.178 501.464 228.98 653.926 228.98 653.926H207.491L194.857 593.325C194.857 593.325 177.028 573.46 171.567 531.278L96.5908 522.334L165.191 463.71Z" fill="#B5845B"/>
<path d="M116.014 519.5C116.014 519.5 128.766 519.146 151.406 511.943C174.047 504.711 190.193 512.356 181.279 537.86C172.364 563.335 127.319 681.408 127.319 681.408L110.258 676.301L124.987 599.849C124.987 599.849 128.441 561.918 144.44 539.69C144.44 539.69 110.789 541.373 99.277 539.602C87.8239 537.86 116.014 519.5 116.014 519.5Z" fill="#A8754B"/>
<path d="M20.3444 456.065C20.3444 456.065 -6.87145 490.277 25.8643 523.869C25.8643 523.869 42.7193 543.498 117.017 540.429C117.017 540.429 136.499 474.662 177.943 456.98L92.1625 445.498L20.3444 456.065Z" fill="#0C2C40"/>
<path d="M56.6231 246.249C56.6231 246.249 65.4786 210.207 34.8091 210.001C12.1095 209.853 5.34979 236.98 33.1855 255.134L56.6231 246.249Z" fill="#190D08"/>
<path d="M32.1522 261.687C32.1522 261.687 26.6028 247.519 42.4246 240.346C58.2464 233.173 63.2941 250.146 63.2941 250.146L32.1522 261.687Z" fill="#FD6C75"/>
<path d="M92.2519 293.921C92.2519 293.921 115.099 280.402 90.3923 253.245C74.9542 236.272 47.9154 237.216 32.8611 254.042C17.8068 270.867 32.0051 300.533 32.0051 300.533L42.2479 283.501L51.2215 270.277L64.062 265.141L74.1277 265.849L82.6585 266.941L89.5363 269.834L92.2519 293.921Z" fill="#27160C"/>
<path d="M73.59 304.845L47.9121 301.547L42.7149 342.011L68.3928 345.309L73.59 304.845Z" fill="#B5845B"/>
<path d="M45.2285 313.581C45.2285 313.581 48.0032 328.31 59.8401 331.292C63.5299 332.207 67.5444 331.144 69.7877 328.104C70.4076 327.277 70.8504 326.332 70.998 325.27C71.5588 321.019 60.3419 313.581 60.3419 313.581H45.2285Z" fill="#A8754B"/>
<path d="M63.3236 324.06L61.9953 323.883C47.2657 321.993 36.8457 308.504 38.7349 293.774L40.2403 282.085C42.1295 267.355 55.6194 256.935 70.349 258.824L71.6773 259.001C86.4069 260.891 96.8269 274.38 94.9377 289.11L93.4323 300.799C91.5431 315.529 78.0532 325.949 63.3236 324.06Z" fill="#B5845B"/>
<path d="M41.6278 290.851C41.6278 290.851 60.1062 284.83 59.6339 264.078C59.6339 264.078 60.8147 248.611 44.6387 262.927C28.4626 277.243 41.6278 290.851 41.6278 290.851Z" fill="#27160C"/>
<path d="M45.7014 296.519C45.052 301.478 40.5357 304.991 35.5472 304.341C30.5881 303.692 27.0754 299.175 27.7248 294.216C28.3742 289.257 32.8905 285.745 37.8791 286.394C42.8382 287.014 46.3508 291.56 45.7014 296.519Z" fill="#B5845B"/>
<path d="M51.6349 280.461L50.8084 287.014C48.9193 296.253 45.0228 293.449 43.606 289.464L51.6349 280.461Z" fill="#27160C"/>
<path d="M97.772 277.125C97.772 277.125 78.9098 291.265 51.2511 270.307C32.1823 255.872 61.0217 250.677 61.0217 250.677L87.9128 256.226L97.772 277.125Z" fill="#27160C"/>
<path d="M42.75 341.976C42.75 341.976 58.8965 370.786 70.3496 361.931C82.7178 352.367 54.7935 333.593 54.7935 333.593L42.75 341.976Z" fill="#B5845B"/>
<path d="M49.8921 400.66C49.8921 400.66 59.8693 419.05 66.688 433.484L139.421 429.292C139.421 429.292 153.856 417.485 165.161 427.462L154.003 440.864L62.9392 461.025C59.4561 461.792 55.8253 460.788 53.2572 458.368C45.1987 450.752 27.6648 433.012 19.1636 414.917L49.8921 400.66Z" fill="#B5845B"/>
<path d="M251.769 372.292H162.388C159.436 372.292 156.898 374.359 156.307 377.222L139.482 456.183C138.655 460.05 141.607 463.71 145.563 463.71H236.449C239.431 463.71 241.999 461.585 242.56 458.663L257.909 379.701C258.618 375.864 255.666 372.292 251.769 372.292Z" fill="#B2B2B2"/>
<path d="M256.905 372.292H167.524C164.572 372.292 162.033 374.359 161.443 377.222L144.617 456.183C143.791 460.05 146.743 463.71 150.698 463.71H241.585C244.566 463.71 247.135 461.585 247.695 458.663L263.045 379.701C263.753 375.864 260.831 372.292 256.905 372.292Z" fill="#D1D1D1"/>
<path d="M141.843 456.98H80.7694C78.9097 456.98 77.4043 458.485 77.4043 460.345C77.4043 462.205 78.9097 463.71 80.7694 463.71H143.023L141.843 456.98Z" fill="#B2B2B2"/>
<path d="M201.558 415.95C201.558 421.322 205.927 425.691 211.299 425.691C216.671 425.691 221.04 421.322 221.04 415.95C221.04 410.578 216.671 406.209 211.299 406.209C205.927 406.209 201.558 410.548 201.558 415.95Z" fill="white"/>
<path d="M19.164 342.39C17.9537 342.921 -22.1026 362.61 17.3043 423.624C17.3043 423.624 42.4835 424.037 57.0655 405.293C57.095 405.293 52.254 327.867 19.164 342.39Z" fill="#FFD686"/>
<path d="M105.623 672.966C106.155 671.372 107.896 670.781 109.077 671.815C111.379 673.851 115.512 676.36 121.593 675.741C127.939 675.121 130.3 671.372 131.216 668.686C131.688 667.269 133.046 666.56 134.256 667.151L172.689 686.456C175.021 687.636 176.851 689.821 177.736 692.536C178.592 695.104 176.88 697.85 174.46 697.791L108.073 695.96C105.446 695.901 103.468 693.333 103.675 690.352L104.767 675.711C104.797 675.475 104.826 675.239 104.915 675.003L105.623 672.966Z" fill="#FD6C75"/>
<path d="M202.532 647.698C202.65 646.015 204.155 644.982 205.543 645.691C208.288 647.049 212.922 648.377 218.649 646.193C224.582 643.92 225.91 639.698 226.087 636.865C226.176 635.389 227.298 634.326 228.626 634.592L270.778 643.182C273.346 643.713 275.678 645.336 277.272 647.727C278.777 649.971 277.833 653.07 275.501 653.631L210.944 669.246C208.406 669.866 205.808 667.918 205.247 664.966L202.473 650.561C202.414 650.325 202.414 650.089 202.414 649.823L202.532 647.698Z" fill="#FD6C75"/>
</svg>
