<svg width="159" height="159" viewBox="0 0 159 159" fill="none" xmlns="http://www.w3.org/2000/svg">
<circle cx="79.5" cy="79.5" r="79" stroke="#AC5BB9"/>
<path d="M24.183 134.089C24.5915 134.217 25.0255 134.146 25.3909 133.891C25.7563 133.636 26.0236 133.218 26.135 132.726C29.4202 117.935 42.7715 114.101 50.7517 111.807C52.7515 111.234 54.3303 110.78 55.3574 110.245C64.4475 105.484 67.4105 97.8242 68.2972 92.2355C68.35 91.903 68.3291 91.5596 68.2367 91.24C68.1443 90.9203 67.9836 90.6358 67.771 90.415C63.0377 85.4845 59.0444 78.083 56.5247 69.5692C56.4536 69.325 56.3418 69.101 56.1962 68.911C52.8632 64.5386 50.9495 59.9161 50.9495 56.2326C50.9495 54.0811 51.6224 52.6377 53.1375 51.5485C53.3644 51.3848 53.554 51.1555 53.6893 50.8814C53.8246 50.6073 53.9013 50.2969 53.9125 49.9781C54.6174 30.3717 66.189 14.9375 80.3823 14.8374L80.7236 14.8643C94.9871 15.103 106.485 30.8682 106.897 50.7518C106.903 51.0235 106.956 51.2907 107.054 51.5356C107.152 51.7805 107.292 51.9974 107.464 52.172C108.463 53.192 108.928 54.4852 108.928 56.2403C108.928 59.3233 107.567 63.1145 105.098 66.9096C104.98 67.0922 104.89 67.2979 104.83 67.5177C102.278 77.2786 97.6982 85.8963 92.2696 91.1694C92.0448 91.3885 91.8732 91.6771 91.7733 92.0044C91.6733 92.3317 91.6487 92.6856 91.7019 93.0284C92.5886 98.6132 95.5516 106.269 104.642 111.038C105.717 111.6 107.385 112.038 109.499 112.589C117.4 114.652 130.62 118.112 133.864 132.726C133.919 132.97 134.012 133.199 134.14 133.4C134.268 133.6 134.427 133.768 134.609 133.894C134.79 134.02 134.99 134.102 135.198 134.135C135.406 134.168 135.617 134.151 135.819 134.085C136.022 134.019 136.211 133.906 136.377 133.752C136.543 133.598 136.683 133.406 136.787 133.187C136.892 132.968 136.959 132.726 136.987 132.475C137.014 132.224 137 131.97 136.945 131.726C133.197 114.84 118.22 110.926 110.176 108.824C108.31 108.336 106.699 107.916 105.914 107.5C99.9819 104.39 96.3267 99.6524 95.0349 93.3941C100.543 87.6861 105.152 78.8797 107.787 69.0034C110.584 64.6156 112.121 60.097 112.121 56.2365C112.121 53.6615 111.432 51.5138 110.067 49.8357C109.308 28.2663 96.5531 11.281 80.7236 11.0077L80.2483 11C64.7058 11.1001 51.8967 27.6389 50.7772 48.835C48.7806 50.6055 47.7663 53.0881 47.7663 56.2403C47.7663 60.7936 49.9001 66.2399 53.635 71.2358C56.2153 79.7919 60.215 87.3089 64.9769 92.5704C63.6916 98.8518 60.0332 103.605 54.0879 106.719C53.3193 107.123 51.7883 107.566 50.0149 108.074C41.9104 110.399 26.8303 114.729 23.054 131.733C22.9449 132.226 23.0026 132.751 23.2143 133.193C23.426 133.635 23.7745 133.957 24.183 134.089Z" fill="#AC5BB9"/>
</svg>
